<svg xmlns="http://www.w3.org/2000/svg" aria-hidden="true" style="position:absolute;width:0;height:0;overflow:hidden"><defs><symbol id="icon-linkedin" viewBox="0 0 32 32"><path fill="#4d5ae5" d="M32 16v.021a15.9 15.9 0 0 1-4.686 11.293A15.9 15.9 0 0 1 16.021 32h-.022H16h-.021a15.9 15.9 0 0 1-11.293-4.686A15.9 15.9 0 0 1 0 16.021V16v.001-.021A15.9 15.9 0 0 1 4.686 4.687 15.9 15.9 0 0 1 15.979.001H16h-.001.021a15.9 15.9 0 0 1 11.293 4.686 15.9 15.9 0 0 1 4.686 11.293v.022-.001z" style="fill:var(--color1, #4d5ae5)"/><path fill="#f4f4fd" d="M25.595 25.6h.005v-7.042c0-3.445-.742-6.098-4.769-6.098-1.936 0-3.235 1.062-3.766 2.07h-.056v-1.748h-3.818v12.819h3.976v-6.347c0-1.671.317-3.287 2.386-3.287 2.039 0 2.07 1.907 2.07 3.394v6.24h3.972zM6.717 12.782h3.981V25.6H6.717V12.782zM8.706 6.4A2.307 2.307 0 0 0 6.4 8.706c0 1.273 1.033 2.328 2.306 2.328s2.306-1.055 2.306-2.328A2.308 2.308 0 0 0 8.706 6.4z" style="fill:var(--color2, #f4f4fd)"/></symbol><symbol id="icon-instagram" viewBox="0 0 32 32"><path fill="#4d5ae5" d="M32 16v.021a15.9 15.9 0 0 1-4.686 11.293A15.9 15.9 0 0 1 16.021 32h-.022H16h-.021a15.9 15.9 0 0 1-11.293-4.686A15.9 15.9 0 0 1 0 16.021V16v.001-.021A15.9 15.9 0 0 1 4.686 4.687 15.9 15.9 0 0 1 15.979.001H16h-.001.021a15.9 15.9 0 0 1 11.293 4.686 15.9 15.9 0 0 1 4.686 11.293v.022-.001z" style="fill:var(--color1, #4d5ae5)"/><path fill="#f4f4fd" d="M25.582 12.045c-.046-1.02-.21-1.722-.446-2.329a4.69 4.69 0 0 0-1.11-1.702l-.001-.001a4.728 4.728 0 0 0-1.667-1.095l-.032-.011c-.611-.236-1.309-.402-2.33-.446-1.027-.048-1.354-.06-3.96-.06s-2.934.011-3.958.056c-1.02.046-1.722.21-2.329.446a4.69 4.69 0 0 0-1.702 1.11l-.001.001a4.728 4.728 0 0 0-1.095 1.667l-.011.032c-.236.611-.402 1.309-.446 2.329-.048 1.028-.06 1.354-.06 3.961s.011 2.934.056 3.958c.046 1.02.21 1.722.447 2.329a4.77 4.77 0 0 0 1.109 1.703l.001.001c.48.488 1.062.866 1.699 1.106.611.236 1.309.401 2.33.446 1.024.045 1.35.056 3.957.056s2.933-.011 3.957-.056c1.02-.046 1.722-.21 2.33-.446a4.938 4.938 0 0 0 2.797-2.776l.012-.033c.237-.611.402-1.309.446-2.329.045-1.024.056-1.35.056-3.958s-.003-2.933-.048-3.957zm-1.73 7.839c-.041.938-.198 1.444-.33 1.782a3.206 3.206 0 0 1-1.802 1.816l-.022.008c-.338.131-.848.288-1.782.33-1.013.045-1.316.056-3.878.056s-2.869-.011-3.878-.056c-.938-.042-1.444-.198-1.782-.33a2.98 2.98 0 0 1-1.102-.716l-.001-.001a2.988 2.988 0 0 1-.71-1.082l-.007-.021c-.131-.338-.288-.848-.33-1.782-.045-1.013-.056-1.317-.056-3.878s.011-2.87.056-3.878c.041-.938.198-1.444.33-1.782.154-.416.398-.795.72-1.102.303-.31.671-.555 1.083-.71l.021-.007c.337-.131.847-.288 1.781-.33 1.013-.046 1.317-.056 3.878-.056 2.566 0 2.87.01 3.878.056.938.041 1.444.198 1.782.33a2.95 2.95 0 0 1 1.102.717c.319.311.562.686.717 1.102.131.338.288.848.33 1.782.045 1.013.056 1.317.056 3.878s-.011 2.862-.056 3.874z" style="fill:var(--color2, #f4f4fd)"/><path fill="#f4f4fd" d="M16.035 11.07a4.933 4.933 0 0 0 0 9.865 4.933 4.933 0 0 0 0-9.865zm0 8.132a3.2 3.2 0 0 1 .001-6.4h.001a3.2 3.2 0 0 1-.001 6.4h-.001zm6.279-8.328v.03a1.152 1.152 0 0 1-2.304 0v-.032.002a1.153 1.153 0 0 1 2.304-.002v.002z" style="fill:var(--color2, #f4f4fd)"/></symbol><symbol id="icon-facebook" viewBox="0 0 32 32"><path fill="#4d5ae5" d="M32 16v.021a15.9 15.9 0 0 1-4.686 11.293A15.9 15.9 0 0 1 16.021 32h-.022H16h-.021a15.9 15.9 0 0 1-11.293-4.686A15.9 15.9 0 0 1 0 16.021V16v.001-.021A15.9 15.9 0 0 1 4.686 4.687 15.9 15.9 0 0 1 15.979.001H16h-.001.021a15.9 15.9 0 0 1 11.293 4.686 15.9 15.9 0 0 1 4.686 11.293v.022-.001z" style="fill:var(--color1, #4d5ae5)"/><path fill="#f4f4fd" d="M19.198 9.588h1.753V6.536a22.453 22.453 0 0 0-2.554-.136c-2.527 0-4.258 1.59-4.258 4.512V13.6H11.35v3.413h2.789V25.6h3.419v-8.586h2.676l.425-3.413h-3.102V11.25c.001-.986.266-1.662 1.641-1.662z" style="fill:var(--color2, #f4f4fd)"/></symbol><symbol id="icon-tweeter" viewBox="0 0 32 32"><path fill="#4d5ae5" d="M32 16v.021a15.9 15.9 0 0 1-4.686 11.293A15.9 15.9 0 0 1 16.021 32h-.022H16h-.021a15.9 15.9 0 0 1-11.293-4.686A15.9 15.9 0 0 1 0 16.021V16v.001-.021A15.9 15.9 0 0 1 4.686 4.687 15.9 15.9 0 0 1 15.979.001H16h-.001.021a15.9 15.9 0 0 1 11.293 4.686 15.9 15.9 0 0 1 4.686 11.293v.022-.001z" style="fill:var(--color1, #4d5ae5)"/><path fill="#f4f4fd" d="M25.6 10.047a8.248 8.248 0 0 1-2.268.622 3.935 3.935 0 0 0 1.724-2.148l.008-.028a7.71 7.71 0 0 1-2.446.944l-.05.008a3.935 3.935 0 0 0-6.809 2.688v.003c0 .312.026.613.091.898a11.143 11.143 0 0 1-8.114-4.118 3.945 3.945 0 0 0 1.21 5.261 3.864 3.864 0 0 1-1.798-.496l.019.01v.043a3.954 3.954 0 0 0 3.128 3.863l.026.005c-.32.088-.67.13-1.032.13l-.062.001c-.242 0-.478-.025-.706-.072l.023.004c.51 1.558 1.957 2.704 3.678 2.742a7.858 7.858 0 0 1-4.872 1.679h-.008c-.323 0-.633-.014-.942-.054a10.973 10.973 0 0 0 6.003 1.766h.038-.002c7.243 0 11.203-6 11.203-11.2 0-.174-.006-.342-.014-.51a7.937 7.937 0 0 0 1.955-2.014l.018-.028z" style="fill:var(--color2, #f4f4fd)"/></symbol><symbol id="icon-group-6" viewBox="0 0 67 32"><path fill="#8e8f99" d="M33.799 15.248a2.088 2.088 0 0 1-.431-1.423v.006-2.054c0-.629.143-1.108.429-1.435s.777-.491 1.472-.489c.654 0 1.118.139 1.392.418.299.356.444.789.411 1.228v.484h-1.169v-.489a2.48 2.48 0 0 0-.034-.479.462.462 0 0 0-.166-.284l-.001-.001a.672.672 0 0 0-.426-.11h.002a.712.712 0 0 0-.448.118l.003-.002a.553.553 0 0 0-.193.309l-.001.004c-.03.141-.047.302-.047.468v.042-.002 2.492a1.27 1.27 0 0 0 .154.707l-.003-.007a.552.552 0 0 0 .23.169l.004.001c.095.036.199.05.302.039a.635.635 0 0 0 .414-.113.503.503 0 0 0 .174-.3v-.003c.027-.165.04-.332.036-.499v-.506h1.17v.462a1.869 1.869 0 0 1-.408 1.294l.003-.004c-.268.305-.725.457-1.399.457s-1.181-.163-1.47-.501zm4.868.022c-.295-.32-.443-.786-.443-1.402v-2.16c0-.61.148-1.072.443-1.385s.789-.469 1.482-.468c.688 0 1.179.156 1.474.468.296.314.446.775.446 1.385v2.16c0 .61-.15 1.078-.45 1.4s-.789.482-1.47.482-1.184-.163-1.482-.48zm2.027-.519c.106-.199.154-.42.14-.639v-2.645a1.17 1.17 0 0 0-.141-.633l.003.006a.552.552 0 0 0-.234-.171l-.004-.001a.626.626 0 0 0-.312-.037h.003a.643.643 0 0 0-.314.038l.004-.002a.566.566 0 0 0-.24.171l-.001.001a1.138 1.138 0 0 0-.14.627v2.658c-.015.22.033.439.14.639a.805.805 0 0 0 .853.156l-.006.002a.737.737 0 0 0 .247-.158v-.013zm2.782-4.834h1.259l.947 3.986.968-3.986h1.225l.124 5.753h-.906l-.097-3.998-.934 3.998h-.726l-.969-4.013-.09 4.013h-.915l.114-5.753zm5.934 0h1.961c1.129 0 1.695.545 1.695 1.633 0 1.043-.595 1.564-1.785 1.563h-.668v2.556h-1.21l.007-5.753zm1.676 2.459c.119.013.241.004.356-.028s.22-.083.31-.154a.926.926 0 0 0 .174-.654v.004l.001-.066c0-.162-.021-.319-.062-.469l.003.013a.418.418 0 0 0-.09-.158.513.513 0 0 0-.15-.115l-.003-.001a1.243 1.243 0 0 0-.476-.094l-.067.002h.003-.469v1.72h.469zm3.726-2.459h1.3l1.334 5.753h-1.129l-.263-1.326h-1.16l-.272 1.326h-1.145l1.334-5.753zm1.111 3.761-.453-2.415-.453 2.415h.905zm2.6-3.761h.848l1.621 3.282V9.917h1.005v5.753h-.806l-1.632-3.425v3.425h-1.038l.002-5.753zm5.828 3.559-1.348-3.551h1.136l.823 2.281.772-2.281h1.111l-1.332 3.551v2.194h-1.162v-2.194zm-28.683 4.71v.301h-.988v2.337h-.413v-2.337h-.993v-.301h2.394zm3.096 2.638h-.328a.141.141 0 0 1-.081-.025.14.14 0 0 1-.053-.06v-.001l-.286-.627h-1.37l-.286.627a.166.166 0 0 1-.043.071.144.144 0 0 1-.082.025h-.328l1.211-2.638h.421l1.225 2.628zm-2.005-.979h1.143l-.484-1.074a1.815 1.815 0 0 1-.087-.235l-.003-.014-.045.14-.044.11-.479 1.072zm4.092.72c.076.004.152.004.228 0a1.526 1.526 0 0 0 .379-.083l-.01.003c.053-.018.107-.041.162-.064v-.594h-.49a.094.094 0 0 1-.03-.005h.001a.108.108 0 0 1-.03-.016.06.06 0 0 1-.018-.021.048.048 0 0 1-.006-.024V19.555h.939v1.011a1.796 1.796 0 0 1-.498.213l-.013.003c-.1.025-.201.043-.303.054a3.51 3.51 0 0 1-.353.017h-.013c-.214 0-.419-.036-.61-.103l.013.004a1.499 1.499 0 0 1-.486-.277l.002.002a1.297 1.297 0 0 1-.31-.41l-.003-.008a1.301 1.301 0 0 1-.111-.53v-.019.001-.017c0-.193.04-.377.112-.544l-.003.009a1.2 1.2 0 0 1 .313-.417 1.47 1.47 0 0 1 .484-.274c.208-.068.428-.101.649-.098.113 0 .225.007.336.023a1.63 1.63 0 0 1 .53.172c.076.042.145.087.211.138l-.116.164a.101.101 0 0 1-.039.035h-.001a.112.112 0 0 1-.055.014.16.16 0 0 1-.076-.022h.001a1.563 1.563 0 0 1-.125-.066l.007.004a1.112 1.112 0 0 0-.155-.069l-.008-.002a1.522 1.522 0 0 0-.213-.057l-.01-.002a1.774 1.774 0 0 0-.292-.023h-.016.001-.015a1.45 1.45 0 0 0-.463.076l.01-.003a1.013 1.013 0 0 0-.356.208.903.903 0 0 0-.226.329 1.221 1.221 0 0 0 .003.888l-.003-.008a.95.95 0 0 0 .242.332c.1.09.22.161.353.209.154.046.317.063.479.052zm3.859-.042h1.323v.301h-1.727v-2.638h.414l-.01 2.337zm2.698.301h-.414v-2.638h.414v2.638zm1.539-2.626a.203.203 0 0 1 .064.048l1.769 1.989-.002-.047.002-.049v.002-1.966h.361v2.649h-.208l-.015.001a.19.19 0 0 1-.076-.015h.001a.23.23 0 0 1-.065-.05l-1.767-1.988v2.052h-.346v-2.638h.215c.023 0 .047.004.068.012zm5.243-.012v.29h-1.468v.871h1.188v.28h-1.188v.9h1.467v.29h-1.894v-2.632h1.894zM10.805 1.891l18.384 4.504v15.783l-18.384-4.501V1.89zM9.626.545v17.897l20.74 5.083V5.629L9.626.545z" style="fill:var(--color3, #8e8f99)"/><path fill="#8e8f99" d="M20.742 31.834 0 26.747V8.851l20.742 5.084v17.899z" style="fill:var(--color3, #8e8f99)"/><path fill="#8e8f99" d="m9.97 1.688 18.144 4.447-7.716 6.66-18.147-4.45 7.718-6.657zM9.626.545 0 8.851l20.742 5.085 9.624-8.306L9.626.544zm12.283 30.282 8.457-7.299-8.457-2.074v9.374z" style="fill:var(--color3, #8e8f99)"/></symbol><symbol id="icon-group-5" viewBox="0 0 44 32"><path fill="#8e8f99" d="M3.334 26.694c.17.191.262.429.257.673.008.159-.023.319-.092.466s-.174.278-.307.384a1.847 1.847 0 0 1-1.163.31h.006H0v-4.266h1.993a1.836 1.836 0 0 1 1.111.287l-.007-.004c.129.097.231.22.298.358s.097.289.089.44a.919.919 0 0 1-.232.652 1.107 1.107 0 0 1-.599.333l-.007.001c.27.045.513.174.687.365zM.947 26.05h.852a.873.873 0 0 0 .541-.141.516.516 0 0 0 .145-.186l.001-.003a.447.447 0 0 0 .039-.185l-.002-.045v.002l.001-.036a.477.477 0 0 0-.041-.193l.001.003a.54.54 0 0 0-.141-.19l-.001-.001a.888.888 0 0 0-.562-.143h.003-.839v1.119zm1.477 1.637a.547.547 0 0 0 .156-.192l.001-.003a.475.475 0 0 0 .046-.205l-.001-.035v.002l.001-.03a.494.494 0 0 0-.049-.214l.001.003a.546.546 0 0 0-.159-.196l-.001-.001a.941.941 0 0 0-.522-.156l-.059.002h.003-.895v1.174h.905a.978.978 0 0 0 .572-.148zm4.984.842-1.109-1.667h-.417v1.667h-.953v-4.266h1.805a1.904 1.904 0 0 1 1.262.367l-.005-.004c.253.232.405.537.429.861s-.08.644-.295.904c-.223.23-.527.383-.861.434l1.181 1.704H7.408zM5.882 26.28h.78c.542 0 .813-.216.813-.646l.001-.035a.572.572 0 0 0-.046-.227l.001.004a.626.626 0 0 0-.155-.221.9.9 0 0 0-.617-.173h.003-.79l.01 1.298zm6.739 1.39H10.72l-.336.858h-1l1.746-4.218h1.081l1.738 4.218h-1l-.328-.858zm-.254-.647-.695-1.8-.694 1.8h1.389zm6.779 1.506H18.2l-2.123-2.901v2.901h-.945v-4.266h.945l2.122 2.918v-2.918h.947v4.266zm5.404-1.022a1.98 1.98 0 0 1-.844.748l-.012.005a3.04 3.04 0 0 1-1.331.269h-1.686v-4.266h1.686l.078-.001c.453 0 .884.097 1.272.271l-.02-.008c.362.165.661.424.856.744.195.347.296.73.296 1.119a2.276 2.276 0 0 1-.302 1.13l.006-.011zm-1.084-.102c.256-.263.416-.622.419-1.018v-.001a1.468 1.468 0 0 0-.419-1.018 1.747 1.747 0 0 0-1.19-.362h.005-.657v2.762h.657a1.76 1.76 0 0 0 1.19-.366l-.004.003zM13.213.534s12.221 4.153 11.962 10.163v10.166s-12.211-4.156-11.958-10.166L13.213.534zm22.849 17.949c2.308-1.43 4.977-2.317 7.764-2.576v-3.183c-3.211 1.114-5.935 3.134-7.764 5.758z" style="fill:var(--color3, #8e8f99)"/><path fill="#8e8f99" d="M34.675 19.442c1.888-3.425 5.164-6.067 9.151-7.384v-9.17S26.422 8.805 26.79 17.364v14.474s.776-.264 1.996-.761c0-.463 0-.929.056-1.398.36-3.974 2.458-7.656 5.834-10.237z" style="fill:var(--color3, #8e8f99)"/><path fill="#8e8f99" d="M33.02 24.819c.103-1.095.318-2.101.637-3.06l-.028.096c-2.102 2.229-3.375 4.995-3.64 7.909-.025.275-.039.55-.046.833a49.005 49.005 0 0 0 3.636-1.727l-.288.138a13.186 13.186 0 0 1-.328-2.958c0-.434.02-.863.06-1.287l-.004.054zm.692.052a12.983 12.983 0 0 0 .231 3.879l-.015-.085c4.755-2.561 10.097-6.518 9.891-11.302v-.417c-3.397.343-6.575 1.68-9.047 3.806a12.764 12.764 0 0 0-1.056 4.067l-.004.051z" style="fill:var(--color3, #8e8f99)"/></symbol><symbol id="icon-group-4" viewBox="0 0 66 32"><path fill="#8e8f99" d="M10.207 9.77h-.002c-1.861 0-3.372 1.36-3.372 3.039v.002c0 1.678 1.51 3.039 3.372 3.039h.002c1.862 0 3.372-1.36 3.372-3.039v-.002c0-1.678-1.509-3.039-3.372-3.039zm24.885-.972c-.005-2.331-1.034-4.566-2.863-6.216C30.4.934 27.922.005 25.335-.001c-2.587.004-5.066.933-6.896 2.582s-2.86 3.885-2.865 6.217v12.858s19.515-1.959 19.517-12.855v-.002zM0 25.876c.005 1.623.721 3.177 1.993 4.325S4.99 31.995 6.789 32c1.799-.005 3.523-.651 4.795-1.798s1.989-2.701 1.994-4.324v-8.945S-.001 18.296-.001 25.877zm6.789 1.603c-.351 0-.695-.094-.988-.27a1.67 1.67 0 0 1-.651-.71l-.004-.01a1.443 1.443 0 0 1-.099-.935l-.002.01c.077-.329.249-.61.485-.82l.002-.001a1.83 1.83 0 0 1 .9-.437l.011-.002c.344-.062.702-.03 1.027.091s.603.326.798.59.3.574.3.891c.001.211-.044.42-.133.616s-.22.372-.385.522a1.804 1.804 0 0 1-.565.345l-.012.004a1.904 1.904 0 0 1-.68.123h-.002v-.006zm12.418-2.882v3.33h-.686v-3.33h.686zm1.327 1.422v.535H19.02v-.535h1.514zm.159-1.422v.537H19.02v-.537h1.673zm3.133 1.587v.158c0 .254-.034.48-.103.681-.066.199-.165.37-.292.517l.002-.002a1.27 1.27 0 0 1-.448.322 1.398 1.398 0 0 1-.554.112h-.022.001c-.208 0-.4-.037-.574-.112a1.29 1.29 0 0 1-.447-.321l-.001-.001a1.496 1.496 0 0 1-.292-.505l-.003-.011a2.071 2.071 0 0 1-.103-.651v-.032.002-.158c0-.254.034-.482.103-.681a1.52 1.52 0 0 1 .29-.515c.126-.14.276-.25.448-.324.174-.075.365-.112.574-.112.211 0 .402.037.574.112.174.075.323.183.448.325.126.142.224.313.293.515.07.199.105.426.105.681zm-.693.157v-.162c0-.176-.016-.332-.048-.466a1.029 1.029 0 0 0-.144-.342l.002.004a.61.61 0 0 0-.225-.204l-.003-.002a.648.648 0 0 0-.295-.07h-.015.001a.65.65 0 0 0-.308.07.624.624 0 0 0-.225.204l-.001.002c-.063.097-.111.21-.138.332l-.001.007a1.99 1.99 0 0 0-.048.437v.031-.002.162c0 .176.016.331.048.467.032.134.08.247.142.341a.634.634 0 0 0 .225.206l.003.002c.09.047.193.07.308.07s.219-.023.309-.07a.62.62 0 0 0 .225-.206l.001-.002c.063-.098.111-.211.138-.333l.001-.007c.031-.136.048-.291.048-.467zm2.92.714v-.007a.45.45 0 0 0-.028-.156l.001.003a.304.304 0 0 0-.095-.132h-.001a.828.828 0 0 0-.194-.119l-.005-.002a2.627 2.627 0 0 0-.312-.118l-.02-.005a4.292 4.292 0 0 1-.456-.175l.026.011a1.826 1.826 0 0 1-.361-.216l.004.003a.947.947 0 0 1-.239-.281l-.003-.005a.78.78 0 0 1-.088-.361v-.017.001-.011c0-.134.034-.26.093-.371l-.002.004a.873.873 0 0 1 .256-.293c.109-.083.24-.146.389-.19.151-.044.316-.066.496-.066.245 0 .46.044.642.133s.325.21.425.364c.101.154.153.33.153.528h-.681v-.012a.512.512 0 0 0-.063-.247l.001.003a.422.422 0 0 0-.18-.175l-.002-.001a.64.64 0 0 0-.283-.064h-.025.001-.023a.703.703 0 0 0-.279.057l.005-.002a.401.401 0 0 0-.179.143l-.001.001a.348.348 0 0 0-.059.195v.007c0 .056.013.107.041.153a.465.465 0 0 0 .127.127l.002.001c.056.039.125.077.208.112s.178.069.286.103c.182.055.341.116.478.185s.254.145.347.231c.094.086.163.182.211.29s.07.231.07.368l.001.032c0 .265-.129.5-.328.645l-.002.002c-.106.08-.234.14-.382.181-.143.04-.307.063-.477.063h-.02.001c-.164 0-.327-.022-.487-.065a1.49 1.49 0 0 1-.442-.202l.005.003a1.01 1.01 0 0 1-.308-.333l-.003-.005a.97.97 0 0 1-.116-.487h.688c0 .104.016.191.048.263.031.07.077.128.134.173l.001.001c.06.044.13.077.207.095l.004.001c.082.02.172.03.269.03h.026a.724.724 0 0 0 .272-.052l-.005.002a.362.362 0 0 0 .229-.336v-.006zm2.641-2.458v3.33h-.684v-3.33h.684zm1.025 0v.537h-2.716v-.537h2.716zm2.624 2.794v.535h-1.772v-.535h1.772zm-1.547-2.794v3.33h-.687v-3.33h.687zm1.316 1.356v.521h-1.541v-.521h1.541zm.229-1.356v.537h-1.77v-.537h1.77zm.403 0h1.241a1.7 1.7 0 0 1 .656.114c.185.076.326.19.425.339s.148.333.148.551c0 .179-.03.332-.091.46a.854.854 0 0 1-.252.316l-.002.001a1.316 1.316 0 0 1-.372.199l-.009.003-.217.115h-1.079l-.005-.535H34.012a.632.632 0 0 0 .281-.066l-.004.002a.431.431 0 0 0 .178-.176l.001-.002a.541.541 0 0 0 .062-.253v-.013.001-.015a.603.603 0 0 0-.061-.265l.002.004a.405.405 0 0 0-.179-.178l-.002-.001a.659.659 0 0 0-.281-.062h-.025.001-.556v2.793h-.685v-3.33zm1.861 3.33-.759-1.485.724-.005.769 1.457v.031h-.734zm3.601-1.187h-.848v-.536h.848l.029.001a.69.69 0 0 0 .295-.066l-.004.002a.412.412 0 0 0 .179-.181l.001-.002a.676.676 0 0 0-.001-.544l.002.004a.463.463 0 0 0-.178-.205l-.002-.001a.59.59 0 0 0-.295-.079l-.026.001h.001-.611v2.793h-.685v-3.33h1.296c.261 0 .484.047.671.142.187.093.33.222.429.386s.148.353.148.564c0 .215-.049.401-.148.558s-.242.279-.429.364c-.187.086-.41.128-.671.128zm3.956.651v.535H40.39v-.535h1.772zm-1.548-2.794v3.33h-.687v-3.33h.687zm1.317 1.356v.521H40.39v-.521h1.541zm.229-1.356v.537h-1.769v-.537h1.77zm1.936 0v3.33h-.683v-3.33h.684zm1.025 0v.537h-2.716v-.537h2.716zm2.625 2.794v.535h-1.772v-.535h1.772zm-1.548-2.794v3.33h-.686v-3.33h.686zm1.317 1.356v.521h-1.541v-.521h1.541zm.228-1.356v.537h-1.769v-.537h1.769zm.403 0h1.241c.255 0 .474.038.657.114s.326.19.425.339a.982.982 0 0 1 .148.551c0 .179-.031.332-.091.46s-.146.234-.252.316l-.002.001a1.308 1.308 0 0 1-.373.199l-.009.003-.217.115h-1.079l-.005-.535H49.414a.632.632 0 0 0 .281-.066l-.004.002a.431.431 0 0 0 .178-.176l.001-.002a.55.55 0 0 0 .063-.255v-.011.001-.014a.592.592 0 0 0-.062-.266l.002.004a.4.4 0 0 0-.179-.178l-.002-.001a.659.659 0 0 0-.281-.062h-.025.001-.555v2.793h-.686v-3.33zm1.861 3.33-.759-1.485.725-.005.768 1.457v.031h-.734zm2.873-.872v-.005a.435.435 0 0 0-.029-.158l.001.003a.304.304 0 0 0-.095-.132h-.001a.828.828 0 0 0-.194-.119l-.005-.002a2.609 2.609 0 0 0-.311-.118l-.02-.005a3.94 3.94 0 0 1-.456-.175l.026.011a1.826 1.826 0 0 1-.361-.216l.004.003a.947.947 0 0 1-.239-.281l-.002-.005a.78.78 0 0 1-.088-.361v-.017.001c0-.139.03-.265.091-.377a.873.873 0 0 1 .256-.293c.109-.083.24-.146.389-.19.151-.044.316-.066.496-.066.245 0 .46.044.642.133s.325.21.425.364c.102.154.153.33.153.528h-.681v-.012a.512.512 0 0 0-.063-.247l.001.003a.422.422 0 0 0-.18-.175l-.002-.001a.64.64 0 0 0-.283-.064h-.025.001-.023a.703.703 0 0 0-.279.057l.005-.002a.393.393 0 0 0-.178.143l-.001.001a.351.351 0 0 0-.059.196v.005c0 .056.013.107.041.153a.465.465 0 0 0 .127.127l.002.001c.056.039.125.077.208.112s.178.069.286.103c.182.055.341.116.478.185s.254.145.347.231c.094.086.163.182.211.29s.07.231.07.368l.001.032c0 .265-.129.5-.328.645l-.002.002c-.106.08-.234.14-.382.181-.143.04-.307.063-.477.063h-.02.001c-.165 0-.328-.022-.487-.065a1.49 1.49 0 0 1-.442-.202l.005.003a1.013 1.013 0 0 1-.309-.333l-.003-.005a.97.97 0 0 1-.116-.487h.688c0 .104.016.191.048.263.031.07.077.128.134.173l.001.001c.06.044.13.077.207.095l.004.001c.082.02.172.03.27.03h.025a.724.724 0 0 0 .272-.052l-.005.002a.362.362 0 0 0 .229-.336v-.005z" style="fill:var(--color3, #8e8f99)"/></symbol><symbol id="icon-group-3" viewBox="0 0 35 32"><path fill="#8e8f99" d="M7.36 27.386a.114.114 0 0 1 .032.007h-.001c.011.004.02.009.027.016l.15.142a1.223 1.223 0 0 1-.414.265l-.008.003a1.67 1.67 0 0 1-.6.096h-.032c-.191 0-.374-.033-.544-.094l.011.004a1.26 1.26 0 0 1-.425-.254l.001.001a1.138 1.138 0 0 1-.272-.385l-.003-.007a1.26 1.26 0 0 1-.096-.488v-.015.001-.016c0-.177.038-.345.107-.496l-.003.008a1.17 1.17 0 0 1 .291-.392c.128-.111.282-.197.451-.256.185-.061.382-.091.581-.09.184-.003.368.024.539.082.149.056.286.132.404.227l-.126.151a.13.13 0 0 1-.031.027h-.001a.093.093 0 0 1-.044.012h-.007a.115.115 0 0 1-.055-.017h.001l-.068-.04-.093-.051a1.088 1.088 0 0 0-.291-.09l-.006-.001a1.302 1.302 0 0 0-.205-.016h-.02.001-.015c-.144 0-.282.025-.411.07l.009-.003a.978.978 0 0 0-.328.19l.001-.001a.874.874 0 0 0-.212.302.98.98 0 0 0-.077.385v.014-.001.015c0 .14.028.274.08.396l-.003-.007c.096.23.283.405.515.485l.006.002c.123.044.254.065.387.064.077.001.154-.003.229-.013a.915.915 0 0 0 .498-.208l-.001.001a.116.116 0 0 1 .071-.026zm4.341-.71c.003.17-.032.34-.101.5-.061.145-.158.277-.283.388s-.276.197-.444.254a1.846 1.846 0 0 1-1.155-.004l.013.004a1.311 1.311 0 0 1-.444-.257l.002.001a1.138 1.138 0 0 1-.282-.384l-.003-.007a1.268 1.268 0 0 1 .003-1.009l-.003.008c.065-.146.161-.279.286-.394.126-.107.276-.191.442-.245a1.813 1.813 0 0 1 1.142 0c.167.058.318.144.443.255.237.212.386.518.386.859v.031-.002zm-.395 0a1.035 1.035 0 0 0-.071-.402.83.83 0 0 0-.513-.488l-.006-.002a1.333 1.333 0 0 0-.84.003l.009-.003a.921.921 0 0 0-.319.19l.001-.001a.816.816 0 0 0-.201.294l-.002.005a1.167 1.167 0 0 0 0 .803.82.82 0 0 0 .203.3.897.897 0 0 0 .318.188c.268.086.562.086.831 0a.838.838 0 0 0 .519-.488c.05-.129.075-.266.072-.402zm3.358.421.04.09c.015-.032.027-.061.043-.09a.683.683 0 0 1 .049-.088l.96-1.491c.019-.027.036-.042.054-.048s.041-.008.064-.008h.016-.001.284v2.426h-.336v-1.859l-.001-.042.002-.044v.002l-.966 1.512a.141.141 0 0 1-.056.055h-.001a.17.17 0 0 1-.081.02h-.057a.175.175 0 0 1-.082-.021h.001a.13.13 0 0 1-.055-.054v-.001l-.994-1.522v1.947h-.325V25.46h.297c.024 0 .046.003.068.009h-.002a.098.098 0 0 1 .052.046v.001l.98 1.493a.459.459 0 0 1 .048.084l.001.003zm3.613-.12v.908h-.376v-2.422h.837c.159-.003.317.015.468.053.122.029.234.08.331.15.08.063.144.142.186.234l.002.004a.727.727 0 0 1 .064.31v.011a.671.671 0 0 1-.271.54l-.002.001a.955.955 0 0 1-.327.158l-.007.002a1.575 1.575 0 0 1-.424.057h-.029l-.453-.007zm0-.26h.455a1.09 1.09 0 0 0 .291-.037.653.653 0 0 0 .213-.105l-.002.001a.458.458 0 0 0 .173-.359v-.006l.001-.025a.395.395 0 0 0-.04-.175l.001.002a.482.482 0 0 0-.13-.165l-.001-.001a.81.81 0 0 0-.446-.132l-.062.002h.003-.455v.999zm5.052 1.171h-.302a.14.14 0 0 1-.078-.023h.001a.152.152 0 0 1-.049-.055v-.001l-.255-.586h-1.284l-.265.586a.143.143 0 0 1-.127.079h-.302l1.128-2.427h.391l1.142 2.427zm-1.86-.9h1.06l-.447-.987a1.514 1.514 0 0 1-.082-.217l-.003-.011-.043.127a1.263 1.263 0 0 1-.041.102l-.444.987zm3.484-1.515a.171.171 0 0 1 .056.043l1.645 1.829v-1.883h.336v2.426h-.194a.18.18 0 0 1-.073-.015h.001a.225.225 0 0 1-.06-.045l-1.642-1.827.001.042-.001.044v-.002 1.803h-.336v-2.426h.199a.177.177 0 0 1 .068.011zm4.807 1.451v.963h-.376v-.963l-1.039-1.461H28.69c.027 0 .052.008.073.021h-.001c.02.016.037.034.05.054l.65.943a.908.908 0 0 1 .112.209l.002.006.049-.104a.884.884 0 0 1 .064-.111l.641-.949a.234.234 0 0 1 .048-.051.126.126 0 0 1 .074-.024H30.799l-1.042 1.468zM14.477 21.39c.163.018.329.032.496.045 2.535-.97 4.681-2.555 6.168-4.561s2.248-4.34 2.19-6.713l-2.794-2.388c.568 2.527.302 5.138-.768 7.544-1.07 2.404-2.902 4.507-5.292 6.073z" style="fill:var(--color3, #8e8f99)"/><path fill="#8e8f99" d="m13.479 21.279.075.013c2.553-1.561 4.5-3.739 5.588-6.255s1.268-5.252.517-7.856L15.678 3.78c1.61 2.796 2.258 5.924 1.869 9.021s-1.8 6.038-4.067 8.478zm13.5-8.314c-.676 2.608-2.319 4.959-4.684 6.706a14.62 14.62 0 0 1-2.14 1.325l-.085.039c1.925-.483 3.696-1.339 5.173-2.499s2.624-2.595 3.35-4.194l-1.614-1.378z" style="fill:var(--color3, #8e8f99)"/><path fill="#8e8f99" d="m26.346 12.581-2.299-1.964c-.044 2.239-.789 4.427-2.158 6.337s-3.311 3.472-5.625 4.523h.012c.543 0 1.08-.028 1.609-.084l-.066.006c2.163-.754 4.074-1.954 5.561-3.493s2.507-3.368 2.966-5.324zM13.812 2.346 11.071 0C8.62.81 6.511 2.232 5.022 4.082c-1.49 1.85-2.292 4.04-2.299 6.286.009 2.48.987 4.889 2.778 6.841s4.292 3.34 7.109 3.941c2.515-2.618 3.988-5.853 4.204-9.235s-.836-6.734-3.003-9.57zm18.869 9.874c-.01-2.944-1.383-5.764-3.82-7.845-2.435-2.081-5.737-3.254-9.182-3.263h-.029c-1.654 0-3.245.271-4.73.771l.105-.03 16.788 14.344a9.443 9.443 0 0 0 .868-3.976v-.001z" style="fill:var(--color3, #8e8f99)"/></symbol><symbol id="icon-group-2" viewBox="0 0 25 32"><path fill="#8e8f99" d="M10.532 1.806h-.084a9.985 9.985 0 0 0-.388-.014h-.28c-.244 0-.494.006-.741.018l-.028-.001-.029.001h.001a17.353 17.353 0 0 0-6.576 1.696l.104-.045-.266.128v13.626l.623-.212a23.32 23.32 0 0 1 1.731-.513c1.488-.398 3.202-.638 4.967-.661h.014v1.79c-.223.001-.439.007-.655.018h-.052a20.051 20.051 0 0 0-3.971.619l.139-.031a19.399 19.399 0 0 0-4.666 1.83l.1-.051V2.529A17.896 17.896 0 0 1 5.14.608L5.267.58a17.862 17.862 0 0 1 4.51-.582h.267c.314.008.622.022.91.044.829.06 1.597.187 2.339.378l-.09-.02v1.762a13.17 13.17 0 0 0-2.134-.326l-.045-.003-.044-.004c-.152-.013-.304-.026-.446-.026zm3.101 1.801c.391.03.796.044 1.205.044a19.413 19.413 0 0 0 4.881-.639l-.135.03a19.492 19.492 0 0 0 4.665-1.831l-.101.051v17.163a17.972 17.972 0 0 1-4.664 1.921l-.127.028a17.962 17.962 0 0 1-4.511.581h-.115c-1.177 0-2.319-.147-3.409-.425l.095.021V3.276c.265.062.537.118.814.164.455.077.934.133 1.401.167zm8.734.133-.623.209c-.572.193-1.151.365-1.731.518-1.551.415-3.332.657-5.169.663h-.004c-.406 0-.78-.011-1.141-.034l-.497-.033V19.08l.426.037c.395.035.803.052 1.214.052a16.554 16.554 0 0 0 4.189-.553l-.116.026a16.96 16.96 0 0 0 3.285-1.189l-.102.044.266-.128V3.739zM1.684 25.977a.916.916 0 0 0-.661-.281l-.034.001h.002-.014c-.139 0-.272.028-.393.078l.007-.003a.904.904 0 0 0-.51.512l-.002.006a1.001 1.001 0 0 0-.071.386v2.335c-.006.164.026.328.092.479.055.12.135.226.234.313a.824.824 0 0 0 .32.166c.114.031.231.048.349.048a.985.985 0 0 0 .968-.982v-.261H1.36v.222c0 .07-.013.136-.037.198l.001-.004a.38.38 0 0 1-.089.132.426.426 0 0 1-.255.089.308.308 0 0 1-.286-.125l-.001-.001a.548.548 0 0 1-.082-.289l.001-.024v.001-2.177a.74.74 0 0 1 .075-.349.31.31 0 0 1 .262-.143l.038.002H.986h.012c.107 0 .201.052.26.131l.001.001a.493.493 0 0 1 .101.3v.014-.001.202h.604v-.249c0-.143-.027-.28-.077-.405l.003.007a.955.955 0 0 0-.205-.329zm3.626-.026a1.051 1.051 0 0 0-1.058-.191.965.965 0 0 0-.557.511l-.002.006a1.08 1.08 0 0 0-.089.452v2.239c-.004.158.026.314.089.458a.888.888 0 0 0 .236.313.964.964 0 0 0 .322.197 1.049 1.049 0 0 0 1.059-.198l-.001.001a.948.948 0 0 0 .23-.313c.063-.144.093-.301.089-.458v-2.259c0-.156-.033-.305-.092-.439l.003.007a1.016 1.016 0 0 0-.23-.327zm-.285 3.018.002.035a.398.398 0 0 1-.123.289.446.446 0 0 1-.575 0l.001.001a.398.398 0 0 1-.121-.326v.002-2.239l-.001-.034a.4.4 0 0 1 .123-.289.446.446 0 0 1 .575 0l-.001-.001a.398.398 0 0 1 .121.326v-.002 2.24zm5.047 1v-4.24h-.586l-.771 2.244h-.01l-.777-2.244h-.58v4.239h.606V27.39h.011l.593 1.823h.302l.598-1.823h.01v2.578h.606zm3.441-3.942a.834.834 0 0 0-.342-.232 1.31 1.31 0 0 0-.416-.066h-.024.001-.9v4.24h.604v-1.656h.311c.189.009.376-.031.545-.116a.88.88 0 0 0 .329-.32l.002-.004a1 1 0 0 0 .138-.369c.021-.133.033-.287.033-.444v-.04.002a2.426 2.426 0 0 0-.059-.606.906.906 0 0 0-.223-.39zm-.312 1.292a.538.538 0 0 1-.057.224l.001-.003a.342.342 0 0 1-.154.147l-.002.001a.617.617 0 0 1-.254.054l-.033-.001h.002-.276V26.3h.311l.029-.001c.088 0 .172.02.247.055l-.004-.002a.35.35 0 0 1 .141.154l.001.002a.62.62 0 0 1 .053.236v.282c0 .098.006.201 0 .291H13.2zm3.173-1.59h-.495l-.934 4.24h.604l.177-.911h.823l.178.911h.604l-.958-4.24zm-.557 2.752.297-1.537h.011l.295 1.537h-.604zm4.46-.198h-.011l-.912-2.554h-.581v4.24h.604v-2.55h.012l.923 2.549h.568v-4.239h-.604v2.554zm3.691-2.554-.486 1.686h-.012l-.486-1.686h-.639l.83 2.448v1.791h.604v-1.791l.83-2.447h-.64zM0 31.166h.291v.817h.198v-.817h.289v-.167H0v.168zm2.447-.168-.382.985h.21l.081-.224h.392l.084.224h.215l-.391-.985h-.21zm-.03.595.134-.365.134.365h-.268zm2.449.027h.228v.127a.378.378 0 0 1-.234.083h-.014a.25.25 0 0 1-.195-.094.406.406 0 0 1-.073-.234l.001-.023v.001c0-.219.095-.329.283-.329l.021-.001c.097 0 .178.067.201.157v.001l.194-.038c-.042-.192-.18-.289-.417-.289h-.013a.492.492 0 0 0-.331.127.48.48 0 0 0-.141.38v-.002.023c0 .132.048.254.127.347l-.001-.001c.087.09.209.146.343.146L4.877 32h-.001.016c.155 0 .296-.06.402-.157v-.388h-.426v.166zm2.471-.622h-.199v.985h.689v-.167h-.49v-.817zm2.089 0h-.199v.985h.199v-.985zm2.043.657-.404-.657h-.193v.985h.185v-.643l.396.643h.198v-.985h-.182v.658zm1.846-.106h.49v-.167h-.49v-.215h.527v-.168h-.727v.985h.747v-.167h-.548v-.266zm4.477-.163h-.388v-.388h-.197v.984h.197v-.431h.388v.431h.198v-.985h-.198v.388zm1.857.163h.492v-.167h-.492v-.215h.529v-.168h-.726v.985h.746v-.167h-.548v-.266zm2.519.001c.171-.027.258-.118.258-.274a.23.23 0 0 0-.096-.219h-.001a.555.555 0 0 0-.25-.059l-.04.001h.002-.417v.984h.198v-.412h.055c.039 0 .076.008.109.023l-.002-.001a.201.201 0 0 1 .07.072l.215.313h.236l-.12-.192a.704.704 0 0 0-.215-.235l-.002-.002zm-.199-.137h-.146v-.247h.156a.515.515 0 0 1 .205.024l-.004-.001a.13.13 0 0 1-.009.2.537.537 0 0 1-.164.025l-.039-.001h.002zm2.099.136h.49v-.167h-.49v-.215h.529v-.168h-.729v.985h.747v-.167h-.548v-.266z" style="fill:var(--color3, #8e8f99)"/></symbol><symbol id="icon-group-1" viewBox="0 0 28 32"><path fill="#8e8f99" d="m4.085 0 4.771 4.545-8.857-.004v22.053h23.149v-8.432l4.766 4.541V0H4.084zm18.854 17.629L9.411 4.74h13.528v12.889zm-4.2 5.739H3.663V8.536h1.066v13.828H18.74v1.005zM6.67 30.681l-.562-1.156h-.464l.814 1.529v.891h.42v-.892l.815-1.529h-.462l-.562 1.155zm2.071-1.156h.099l.914 2.42h-.438l-.196-.566h-.937l-.195.566h-.437l.911-2.42h.279zm-.444 1.523h.709l-.354-1.027-.354 1.027zm2.925-.402-.041-.052-.011-.015a1.267 1.267 0 0 1-.142-.23l-.003-.008a.58.58 0 0 1-.051-.239v-.001c0-.126.026-.234.078-.325s.128-.162.218-.208l.003-.001a.71.71 0 0 1 .334-.075.64.64 0 0 1 .318.075.524.524 0 0 1 .237.673l.001-.003a.603.603 0 0 1-.116.173 1.198 1.198 0 0 1-.165.146l-.003.002-.168.123.479.565a.94.94 0 0 0 .104-.435v-.018.001h.346c0 .118-.012.229-.035.334a1.04 1.04 0 0 1-.179.403l.002-.003.354.419h-.463l-.141-.165a.933.933 0 0 1-.242.134l-.007.002c-.109.04-.235.063-.367.063h-.009a.916.916 0 0 1-.417-.088.664.664 0 0 1-.271-.24l-.002-.003a.656.656 0 0 1-.095-.343v-.012.001c0-.099.02-.185.061-.259a.805.805 0 0 1 .168-.21c.066-.059.14-.118.225-.178zm.199.244-.05.036a.62.62 0 0 0-.13.136l-.001.002a.407.407 0 0 0-.022.411l-.001-.002a.358.358 0 0 0 .133.137l.002.001c.06.032.13.051.205.051h.013-.001a.62.62 0 0 0 .392-.139l-.002.001-.538-.633zm.095-.442.148-.099a.536.536 0 0 0 .149-.135l.001-.001a.302.302 0 0 0 .045-.159v-.012.001a.24.24 0 0 0-.241-.233h-.014.001-.007a.245.245 0 0 0-.223.142l-.001.002a.34.34 0 0 0 .011.298l-.001-.002c.025.052.06.107.105.165l.027.035zm4.235.71h-.416a.76.76 0 0 1-.078.272l.002-.004a.386.386 0 0 1-.166.164l-.002.001a.621.621 0 0 1-.262.057l-.027-.001h.001-.014a.508.508 0 0 1-.24-.06l.003.001a.48.48 0 0 1-.172-.163l-.001-.002a.78.78 0 0 1-.098-.249l-.001-.005a1.599 1.599 0 0 1-.032-.32v-.013.001-.204c0-.129.012-.243.035-.343s.06-.185.108-.254a.47.47 0 0 1 .176-.155l.003-.001a.535.535 0 0 1 .236-.053h.014-.001c.116 0 .21.02.283.06s.126.095.163.17a.778.778 0 0 1 .073.267h.415a1.037 1.037 0 0 0-.139-.435l.003.005a.771.771 0 0 0-.305-.292l-.004-.002a1.01 1.01 0 0 0-.457-.107h-.033.002c-.152 0-.289.027-.411.08s-.225.129-.311.232a1.011 1.011 0 0 0-.197.353l-.002.007c-.046.14-.068.298-.068.472v.202c0 .174.022.331.067.472s.111.261.196.361a.878.878 0 0 0 .307.229.99.99 0 0 0 .404.08c.195 0 .361-.035.497-.106s.242-.168.317-.291a.962.962 0 0 0 .133-.424zm2.308-.356v-.133c0-.182-.024-.347-.073-.49a1.051 1.051 0 0 0-.206-.373l.001.001a.88.88 0 0 0-.312-.232l-.006-.002a1.006 1.006 0 0 0-.409-.082.983.983 0 0 0-.407.082.88.88 0 0 0-.318.234 1.101 1.101 0 0 0-.206.371c-.047.14-.074.301-.074.468v.023-.001.133c0 .183.024.347.074.492.048.143.119.266.21.372l-.001-.001c.09.102.196.18.317.235.123.053.259.08.408.08s.286-.027.409-.08a.873.873 0 0 0 .316-.235c.088-.102.157-.225.204-.37s.072-.309.072-.492zm-.417-.136v.136c0 .136-.014.255-.04.36a.783.783 0 0 1-.115.267l.002-.003a.503.503 0 0 1-.18.16l-.003.001a.54.54 0 0 1-.237.053h-.012.001-.011a.545.545 0 0 1-.239-.055l.003.001a.541.541 0 0 1-.185-.16l-.001-.002a.789.789 0 0 1-.115-.259l-.001-.005a1.405 1.405 0 0 1-.04-.341v-.02.001-.136c0-.135.014-.254.04-.357s.065-.191.115-.261a.5.5 0 0 1 .181-.158l.003-.001a.527.527 0 0 1 .237-.055h.01c.092 0 .174.018.248.054s.134.088.184.16a.72.72 0 0 1 .115.261c.027.104.04.223.04.357z" style="fill:var(--color3, #8e8f99)"/></symbol><symbol id="icon-diagram-1" viewBox="0 0 32 32"><path fill="#4d5ae5" d="M14.925 14.965h1.066v4.797h-1.066v-4.797zm4.265 2.132h1.066v2.665H19.19v-2.665zm-8.529 1.599h1.066v1.066h-1.066v-1.066zm-3.198-.533h1.066v1.599H7.463v-1.599z" style="fill:var(--color1, #4d5ae5)"/><path fill="#2e2f42" d="M1.599 28.291h25.587a1.6 1.6 0 0 0 1.599-1.599v-2.133a1.6 1.6 0 0 0-1.599-1.599h-.534V9.667l3.028-2.868a1.608 1.608 0 1 0-.742-.753l-.004-.01-2.282 2.163v-1.23a1.6 1.6 0 0 0-1.599-1.599H3.73a1.6 1.6 0 0 0-1.599 1.599V22.961h-.533A1.6 1.6 0 0 0-.001 24.56v2.134a1.6 1.6 0 0 0 1.599 1.599zM30.384 4.837a.533.533 0 0 1 0 1.066.533.533 0 0 1 0-1.066zM3.199 6.969c0-.295.239-.534.533-.534h21.322c.294 0 .533.239.533.534v2.238l-1.066 1.013V8.035a.532.532 0 0 0-.533-.533H4.798a.533.533 0 0 0-.533.533v13.326c0 .295.239.534.533.534h19.19a.534.534 0 0 0 .533-.534v-9.674l1.066-1.01V22.96H3.199V6.969zm4.797 6.93h-.005a1.6 1.6 0 1 0 1.112 2.748l1.853.93a.532.532 0 0 0 .636-.123l3.938-4.431 3.872 2.902a.532.532 0 0 0 .686-.04l3.365-3.188v8.131H5.33V8.568h18.124v2.66L19.682 14.8l-3.905-2.928a.531.531 0 0 0-.717.072v.001l-3.993 4.493-1.493-.746c.011-.064.018-.129.021-.194a1.6 1.6 0 0 0-1.599-1.599zm.533 1.599a.533.533 0 0 1-1.066 0 .533.533 0 0 1 1.066 0zm3.198 8.528h5.331v.533a.533.533 0 0 1-.533.533h-4.264a.533.533 0 0 1-.533-.533v-.533zm-10.661.534c0-.294.239-.533.533-.533h9.062v.533a1.6 1.6 0 0 0 1.599 1.599h4.265a1.6 1.6 0 0 0 1.599-1.599v-.534h9.061c.295 0 .534.238.534.533v2.133a.534.534 0 0 1-.534.533H1.599a.533.533 0 0 1-.533-.533v-2.133z" style="fill:var(--color4, #2e2f42)"/></symbol><symbol id="icon-clock-1" viewBox="0 0 31 32"><path fill="#2e2f42" d="M29.152 13.601C29.151 6.088 23.059-.001 15.545 0S1.943 6.093 1.944 13.607c.002 6.034 3.931 11.149 9.37 12.929l.096.027a.598.598 0 0 0 .47-.058.567.567 0 0 0 .252-.317l3.436-10.889a1.7 1.7 0 0 0-.006-3.4c-.269 0-.524.063-.751.174l.01-.004-4.539-4.539a.567.567 0 0 0-.802.802l4.536 4.541a1.665 1.665 0 0 0 .473 2.05l.004.003-3.273 10.376c-6.469-2.383-9.782-9.559-7.399-16.028s9.56-9.782 16.028-7.399c6.469 2.384 9.781 9.56 7.399 16.028-1.196 3.183-3.559 5.694-6.555 7.056l-.078.032-.354-1.666a.568.568 0 0 0-.932-.305h.001l-3.411 3.045a.566.566 0 0 0 .202.963l.004.001 4.354 1.39a.567.567 0 0 0 .728-.662l.001.004-.348-1.635c4.913-2.111 8.292-6.908 8.292-12.495v-.03.002zm-13.604-.567a.567.567 0 0 1 0 1.134.567.567 0 0 1 0-1.134zm1.868 13.213 1.941-1.732.536 2.524-2.477-.793z" style="fill:var(--color4, #2e2f42)"/><path fill="#4d5ae5" d="M14.982 2.831v1.133a.567.567 0 0 0 1.134 0V2.831a.568.568 0 0 0-1.134-.001v.001zM4.779 13.034a.567.567 0 0 0 0 1.134h1.133a.567.567 0 0 0 0-1.134H4.779zm21.539 1.134a.567.567 0 0 0 0-1.134h-1.133a.568.568 0 0 0-.001 1.134h1.134z" style="fill:var(--color1, #4d5ae5)"/></symbol><symbol id="icon-astronaut-1" viewBox="0 0 32 32"><path fill="#4d5ae5" d="M31.974 4.524a.535.535 0 0 0-.427-.362h-.003l-1.911-.278-.855-1.731c-.179-.365-.776-.365-.956 0l-.855 1.731-1.91.278a.534.534 0 0 0-.296.909l1.383 1.348-.326 1.903a.533.533 0 0 0 .774.561l1.709-.899 1.709.899a.534.534 0 0 0 .773-.565v.003l-.326-1.903L31.84 5.07a.535.535 0 0 0 .134-.55l.001.004zm-2.463 1.327a.534.534 0 0 0-.153.472l.191 1.114-1-.526a.524.524 0 0 0-.499.001l.003-.001-1 .526.191-1.114a.53.53 0 0 0-.153-.472l-.81-.79 1.119-.162a.533.533 0 0 0 .401-.292l.5-1.013.501 1.013a.535.535 0 0 0 .402.292l1.119.162-.809.79zm-3.377 14.671h-1.067v1.067h1.067v-1.067zm0 2.133h-1.067v1.067h1.067v-1.067z" style="fill:var(--color1, #4d5ae5)"/><path fill="#4d5ae5" d="M27.2 21.589h-1.067v1.067H27.2v-1.067zm-2.133 0H24v1.067h1.067v-1.067zm-2.667 4.8h-1.067v1.067H22.4v-1.067zm0 2.134h-1.067v1.067H22.4v-1.067zm1.067-1.067H22.4v1.067h1.067v-1.067zM21.334 27.456h-1.067v1.067h1.067v-1.067zM16 24.256h-1.066v1.067H16v-1.067zm0 2.133h-1.066v1.067H16v-1.067zm1.067-1.066H16v1.067h1.067v-1.067zm-2.133 0h-1.067v1.067h1.067v-1.067zM5.867 6.122H4.801v1.066h1.066V6.122zm0 2.133H4.801v1.067h1.066V8.256zm1.066-1.066H5.867v1.067h1.066V7.189zm-2.133 0H3.733v1.067H4.8V7.189z" style="fill:var(--color1, #4d5ae5)"/><path fill="#2e2f42" d="M24.715 14.159a1.778 1.778 0 0 0-1.179-.704l-.009-.001a1.764 1.764 0 0 0-1.344.356l.004-.003-1.252.96-1.898 1.417-1.358-.541c2.421-1.086 4.114-3.508 4.114-6.32 0-3.823-3.122-6.933-6.961-6.933S7.87 5.5 7.87 9.323a6.86 6.86 0 0 0 1.12 3.758l-2.769-.024c-.008 0-.015.005-.024.005a.52.52 0 0 0-.155.03c-.013.005-.026.008-.038.014-.006.002-.013.003-.019.007L2.751 14.71l-1.893.911a.429.429 0 0 0-.064.036l.001-.001a1.78 1.78 0 0 0-.593 2.304l-.005-.01c.22.429.595.745 1.056.89a1.772 1.772 0 0 0 1.388-.133l-.009.005 1.388-.738 2.264-1.169 1.357-.008-5.442 5.415-.002.002-1.339 1.333c-.303.299-.49.714-.49 1.173v.005a1.668 1.668 0 0 0 1.669 1.663 1.67 1.67 0 0 0 1.18-.485l1.314-1.308 1.74-1.3.901.897L4.07 27.28c-.303.299-.49.714-.49 1.173v.005a1.669 1.669 0 0 0 1.67 1.664c.428 0 .855-.162 1.18-.485l3.482-3.466.001-.002 1.01-1-.004-.003c.007-.006.015-.009.022-.015l5.166-5.658 3.471.494a.522.522 0 0 0 .266-.035l-.004.001c.017-.006.033-.015.05-.023.019-.009.039-.015.057-.027l3.213-2.134c.012-.008.018-.02.029-.029.012-.01.029-.014.04-.025l1.272-1.192a1.777 1.777 0 0 0 .209-2.366l.003.005zM2.13 17.77a.714.714 0 0 1-.558.052.717.717 0 0 1-.215-1.258l.002-.001 1.314-.632.316.925.133.388-.993.527zm3.498-1.827-1.548.8-.255-.747-.183-.537 2.026-1-.04 1.483zm15.099-6.621a5.79 5.79 0 0 1-.599 2.559l-4.181-1.899a1.86 1.86 0 0 0-.782-1.384l-.006-.004 1.464-4.86c2.378.755 4.105 2.974 4.105 5.587zm-11.789 0c0-3.235 2.644-5.867 5.894-5.867.253 0 .5.022.745.053l-1.432 4.753c-.019 0-.037-.005-.057-.005h-.001a1.872 1.872 0 0 0-1.872 1.866 1.873 1.873 0 0 0 1.872 1.867h.001c.694 0 1.294-.383 1.618-.944l3.863 1.755a5.891 5.891 0 0 1-4.736 2.39c-3.25 0-5.895-2.633-5.895-5.867zm5.957.8c0 .441-.362.8-.806.8h-.002a.804.804 0 0 1-.804-.8c0-.441.361-.8.806-.8s.806.359.806.8zM2.465 25.146a.609.609 0 0 1-.855 0 .591.591 0 0 1 0-.844l.962-.959.851.848-.958.955zm3.213 3.734a.606.606 0 0 1-.855.001.591.591 0 0 1 0-.844l.963-.959.851.848-.96.955zm3.483-3.469-.002.001-1.765 1.76-.851-.848 1.763-1.756.002-.001c.04-.04.065-.088.09-.135.007-.014.02-.026.026-.04.017-.041.019-.085.025-.129.004-.024.014-.047.014-.073 0-.035-.012-.07-.02-.105-.007-.032-.007-.065-.018-.096a.511.511 0 0 0-.091-.137c-.01-.012-.014-.027-.025-.038h-.001l-.001-.002-1.607-1.6c-.017-.017-.039-.024-.058-.038a.491.491 0 0 0-.084-.056l-.003-.001a.477.477 0 0 0-.09-.032l-.003-.001a.502.502 0 0 0-.101-.02h-.022a.49.49 0 0 0-.077.006h.003a.59.59 0 0 0-.108.021l.004-.001a.502.502 0 0 0-.096.046l.002-.001c-.02.011-.043.015-.061.029l-1.774 1.324-.901-.897 2.399-2.386 4.36 4.289-.927.919zm6.818-7.017c-.015-.002-.03.004-.045.003l-.026-.001a.562.562 0 0 0-.092.008h.003a.5.5 0 0 0-.187.069l.002-.001a.554.554 0 0 0-.083.061c-.013.011-.028.017-.04.029l-4.698 5.146-4.328-4.257 2.833-2.818a.535.535 0 0 0-.378-.911h-.001l-2.219.013.027-1.607 3.104.027a6.928 6.928 0 0 0 4.978 2.101h.003c.438 0 .864-.045 1.279-.122.04.032.079.064.13.085l2.409.96.152.758.178.885-3.003-.427zm4.041.179-.314-1.558 1.447-1.08.947 1.257-2.08 1.381zm3.754-2.831-.838.785-.931-1.236.831-.637a.73.73 0 0 1 .543-.143.716.716 0 0 1 .395 1.231z" style="fill:var(--color4, #2e2f42)"/><path fill="#2e2f42" d="m13.602 18.544-2.143-2.134a.53.53 0 0 0-.752 0l-2.143 2.134a.533.533 0 0 0 0 .756l2.143 2.133a.53.53 0 0 0 .752 0l2.143-2.133a.532.532 0 0 0 0-.756zm-2.519 1.759-1.386-1.381 1.386-1.381 1.387 1.381-1.387 1.381zm6.081-15.232-.258 1.035c.071.018 1.738.452 1.738 2.149h1.067c0-2.017-1.666-2.966-2.546-3.185zm2.547 4.251h-1.067v1.067h1.067V9.322z" style="fill:var(--color4, #2e2f42)"/></symbol><symbol id="icon-antenna-1" viewBox="0 0 32 32"><path fill="#2e2f42" d="m30.773 22.098-8.443-8.505.937-4.615c.242.094.499.143.759.145h.032a2.16 2.16 0 1 0-2.029-1.42l-.005-.015-4.96.605L8.973.16A.53.53 0 0 0 8.597 0a.536.536 0 0 0-.373.155L6.711 1.659a.53.53 0 0 0 0 .754l.814.825C6.382 5.3 5.709 7.76 5.709 10.377c0 4.106 1.656 7.825 4.336 10.526l-.001-.001a.506.506 0 0 0 .146.098 2.986 2.986 0 0 0-.052.546v6.188h-6.4A2.669 2.669 0 0 0 1.071 30.4v1.067c0 .295.239.533.534.533h24.534a.535.535 0 0 0 .534-.534v-1.067a2.67 2.67 0 0 0-2.667-2.666h-6.4v-2.742a14.784 14.784 0 0 0 10.166-1.502l-.077.039.819.823a.534.534 0 0 0 .377.16.532.532 0 0 0 .373-.155l1.512-1.505a.535.535 0 0 0 0-.754zM23.28 6.233a1.067 1.067 0 1 1 .752 1.822h-.003a1.066 1.066 0 0 1-.746-1.822h-.002zm-1.256 3.505-.599 2.945-1.175-1.182 1.774-1.764zm-.605-.902-1.92 1.909-1.485-1.493 3.405-.415zM24.004 28.8a1.6 1.6 0 0 1 1.6 1.6v.534H2.138V30.4a1.6 1.6 0 0 1 1.6-1.6h20.267zm-7.466-2.134v1.067h-5.334v-1.067h5.334zM11.204 25.6v-4.053c0-1.294 1.197-2.346 2.666-2.346s2.667 1.053 2.667 2.346V25.6h-5.334zm6.4-1.696v-2.357c0-1.882-1.675-3.413-3.733-3.413h-.059c-1.353 0-2.54.707-3.213 1.771l-.009.016a13.816 13.816 0 0 1-3.811-9.549c0-2.314.567-4.496 1.569-6.414l-.036.077 18.602 18.709c-1.823.947-3.98 1.502-6.266 1.502-1.079 0-2.128-.124-3.136-.357l.093.018zm11.289-.683L7.836 2.041l.755-.752 7.935 7.98c.003 0 .006.007.009.009l13.114 13.191-.757.752z" style="fill:var(--color4, #2e2f42)"/><path fill="#4d5ae5" d="M13.876 20.267h-.007a1.6 1.6 0 0 0-.003 3.2h.007a1.6 1.6 0 0 0 .003-3.2zm.373 1.978a.534.534 0 0 1-.91-.379v-.002a.533.533 0 0 1 .53-.53.535.535 0 0 1 .374.912h.005z" style="fill:var(--color1, #4d5ae5)"/></symbol></defs></svg>