<svg aria-hidden="true" style="position: absolute; width: 0; height: 0; overflow: hidden;" version="1.1" xmlns="http://www.w3.org/2000/svg" xmlns:xlink="http://www.w3.org/1999/xlink">
<defs>
<symbol id="icon-linkedin" viewBox="0 0 32 32">
<path fill="#4d5ae5" style="fill: var(--color1, #4d5ae5)" d="M32 16c0 0.006 0 0.013 0 0.021 0 4.412-1.791 8.405-4.686 11.293l-0 0c-2.888 2.895-6.881 4.686-11.293 4.686-0.007 0-0.015 0-0.022 0h0.001c-0.006 0-0.013 0-0.021 0-4.412 0-8.405-1.791-11.293-4.686l-0-0c-2.895-2.888-4.686-6.881-4.686-11.293 0-0.007 0-0.014 0-0.021v0.001c0-0.006 0-0.013 0-0.021 0-4.412 1.791-8.405 4.686-11.293l0-0c2.888-2.895 6.881-4.686 11.293-4.686 0.007 0 0.014 0 0.021 0h-0.001c0.006 0 0.013 0 0.021 0 4.412 0 8.405 1.791 11.293 4.686l0 0c2.895 2.888 4.686 6.881 4.686 11.293 0 0.007 0 0.015 0 0.022v-0.001z"></path>
<path fill="#f4f4fd" style="fill: var(--color2, #f4f4fd)" d="M25.595 25.6h0.005v-7.042c0-3.445-0.742-6.098-4.769-6.098-1.936 0-3.235 1.062-3.766 2.070h-0.056v-1.748h-3.818v12.819h3.976v-6.347c0-1.671 0.317-3.287 2.386-3.287 2.039 0 2.070 1.907 2.070 3.394v6.24h3.972zM6.717 12.782h3.981v12.818h-3.981v-12.818zM8.706 6.4c-1.273 0-2.305 1.032-2.306 2.306v0c0 1.273 1.033 2.328 2.306 2.328s2.306-1.055 2.306-2.328c-0.001-1.273-1.033-2.305-2.306-2.306h-0z"></path>
</symbol>
<symbol id="icon-instagram" viewBox="0 0 32 32">
<path fill="#4d5ae5" style="fill: var(--color1, #4d5ae5)" d="M32 16c0 0.006 0 0.013 0 0.021 0 4.412-1.791 8.405-4.686 11.293l-0 0c-2.888 2.895-6.881 4.686-11.293 4.686-0.007 0-0.015 0-0.022 0h0.001c-0.006 0-0.013 0-0.021 0-4.412 0-8.405-1.791-11.293-4.686l-0-0c-2.895-2.888-4.686-6.881-4.686-11.293 0-0.007 0-0.014 0-0.021v0.001c0-0.006 0-0.013 0-0.021 0-4.412 1.791-8.405 4.686-11.293l0-0c2.888-2.895 6.881-4.686 11.293-4.686 0.007 0 0.014 0 0.021 0h-0.001c0.006 0 0.013 0 0.021 0 4.412 0 8.405 1.791 11.293 4.686l0 0c2.895 2.888 4.686 6.881 4.686 11.293 0 0.007 0 0.015 0 0.022v-0.001z"></path>
<path fill="#f4f4fd" style="fill: var(--color2, #f4f4fd)" d="M25.582 12.045c-0.046-1.020-0.21-1.722-0.446-2.329-0.254-0.667-0.632-1.235-1.11-1.702l-0.001-0.001c-0.468-0.475-1.034-0.851-1.667-1.095l-0.032-0.011c-0.611-0.236-1.309-0.402-2.33-0.446-1.027-0.048-1.354-0.060-3.96-0.060s-2.934 0.011-3.958 0.056c-1.020 0.046-1.722 0.21-2.329 0.446-0.667 0.254-1.235 0.632-1.702 1.11l-0.001 0.001c-0.475 0.468-0.851 1.034-1.095 1.667l-0.011 0.032c-0.236 0.611-0.402 1.309-0.446 2.329-0.048 1.028-0.060 1.354-0.060 3.961s0.011 2.934 0.056 3.958c0.046 1.020 0.21 1.722 0.447 2.329 0.256 0.666 0.633 1.234 1.109 1.703l0.001 0.001c0.48 0.488 1.062 0.866 1.699 1.106 0.611 0.236 1.309 0.401 2.33 0.446 1.024 0.045 1.35 0.056 3.957 0.056s2.933-0.011 3.957-0.056c1.020-0.046 1.722-0.21 2.33-0.446 1.294-0.51 2.299-1.515 2.797-2.776l0.012-0.033c0.237-0.611 0.402-1.309 0.446-2.329 0.045-1.024 0.056-1.35 0.056-3.958s-0.003-2.933-0.048-3.957zM23.852 19.884c-0.041 0.938-0.198 1.444-0.33 1.782-0.331 0.84-0.983 1.492-1.802 1.816l-0.022 0.008c-0.338 0.131-0.848 0.288-1.782 0.33-1.013 0.045-1.316 0.056-3.878 0.056s-2.869-0.011-3.878-0.056c-0.938-0.042-1.444-0.198-1.782-0.33-0.432-0.162-0.801-0.406-1.102-0.716l-0.001-0.001c-0.31-0.302-0.554-0.67-0.71-1.082l-0.007-0.021c-0.131-0.338-0.288-0.848-0.33-1.782-0.045-1.013-0.056-1.317-0.056-3.878s0.011-2.87 0.056-3.878c0.041-0.938 0.198-1.444 0.33-1.782 0.154-0.416 0.398-0.795 0.72-1.102 0.303-0.31 0.671-0.555 1.083-0.71l0.021-0.007c0.337-0.131 0.847-0.288 1.781-0.33 1.013-0.046 1.317-0.056 3.878-0.056 2.566 0 2.87 0.010 3.878 0.056 0.938 0.041 1.444 0.198 1.782 0.33 0.416 0.154 0.795 0.398 1.102 0.717 0.319 0.311 0.562 0.686 0.717 1.102 0.131 0.338 0.288 0.848 0.33 1.782 0.045 1.013 0.056 1.317 0.056 3.878s-0.011 2.862-0.056 3.874z"></path>
<path fill="#f4f4fd" style="fill: var(--color2, #f4f4fd)" d="M16.035 11.070c-2.723 0.001-4.931 2.209-4.932 4.932v0c0 2.724 2.208 4.932 4.932 4.933h0c2.724-0 4.932-2.209 4.933-4.933v-0c-0.001-2.724-2.209-4.932-4.933-4.932h-0zM16.035 19.202c-1.767-0-3.199-1.433-3.199-3.2s1.433-3.2 3.2-3.2c0 0 0.001 0 0.001 0h-0c1.767 0 3.199 1.433 3.199 3.2s-1.433 3.2-3.2 3.2c-0 0-0.001 0-0.001 0h0zM22.314 10.874c0 0.009 0 0.020 0 0.030 0 0.636-0.516 1.152-1.152 1.152s-1.152-0.516-1.152-1.152c0-0.011 0-0.021 0-0.032l-0 0.002c0.017-0.623 0.526-1.122 1.152-1.122s1.135 0.499 1.152 1.12l0 0.002z"></path>
</symbol>
<symbol id="icon-facebook" viewBox="0 0 32 32">
<path fill="#4d5ae5" style="fill: var(--color1, #4d5ae5)" d="M32 16c0 0.006 0 0.013 0 0.021 0 4.412-1.791 8.405-4.686 11.293l-0 0c-2.888 2.895-6.881 4.686-11.293 4.686-0.007 0-0.015 0-0.022 0h0.001c-0.006 0-0.013 0-0.021 0-4.412 0-8.405-1.791-11.293-4.686l-0-0c-2.895-2.888-4.686-6.881-4.686-11.293 0-0.007 0-0.014 0-0.021v0.001c0-0.006 0-0.013 0-0.021 0-4.412 1.791-8.405 4.686-11.293l0-0c2.888-2.895 6.881-4.686 11.293-4.686 0.007 0 0.014 0 0.021 0h-0.001c0.006 0 0.013 0 0.021 0 4.412 0 8.405 1.791 11.293 4.686l0 0c2.895 2.888 4.686 6.881 4.686 11.293 0 0.007 0 0.015 0 0.022v-0.001z"></path>
<path fill="#f4f4fd" style="fill: var(--color2, #f4f4fd)" d="M19.198 9.588h1.753v-3.052c-0.302-0.042-1.342-0.136-2.554-0.136-2.527 0-4.258 1.59-4.258 4.512v2.688h-2.789v3.413h2.789v8.587h3.419v-8.586h2.676l0.425-3.413h-3.102v-2.351c0.001-0.986 0.266-1.662 1.641-1.662z"></path>
</symbol>
<symbol id="icon-tweeter" viewBox="0 0 32 32">
<path fill="#4d5ae5" style="fill: var(--color1, #4d5ae5)" d="M32 16c0 0.006 0 0.013 0 0.021 0 4.412-1.791 8.405-4.686 11.293l-0 0c-2.888 2.895-6.881 4.686-11.293 4.686-0.007 0-0.015 0-0.022 0h0.001c-0.006 0-0.013 0-0.021 0-4.412 0-8.405-1.791-11.293-4.686l-0-0c-2.895-2.888-4.686-6.881-4.686-11.293 0-0.007 0-0.014 0-0.021v0.001c0-0.006 0-0.013 0-0.021 0-4.412 1.791-8.405 4.686-11.293l0-0c2.888-2.895 6.881-4.686 11.293-4.686 0.007 0 0.014 0 0.021 0h-0.001c0.006 0 0.013 0 0.021 0 4.412 0 8.405 1.791 11.293 4.686l0 0c2.895 2.888 4.686 6.881 4.686 11.293 0 0.007 0 0.015 0 0.022v-0.001z"></path>
<path fill="#f4f4fd" style="fill: var(--color2, #f4f4fd)" d="M25.6 10.047c-0.714 0.313-1.474 0.52-2.268 0.622 0.816-0.49 1.429-1.247 1.724-2.148l0.008-0.028c-0.718 0.434-1.555 0.764-2.446 0.944l-0.050 0.008c-0.72-0.768-1.741-1.247-2.874-1.247-2.173 0-3.935 1.762-3.935 3.935 0 0.001 0 0.002 0 0.003v-0c0 0.312 0.026 0.613 0.091 0.898-3.273-0.16-6.168-1.728-8.114-4.118-0.338 0.57-0.537 1.256-0.538 1.989v0c0 1.363 0.702 2.572 1.748 3.272-0.655-0.018-1.266-0.196-1.798-0.496l0.019 0.010v0.043c0.002 1.899 1.342 3.484 3.128 3.863l0.026 0.005c-0.32 0.088-0.67 0.13-1.032 0.13-0.018 0-0.040 0.001-0.062 0.001-0.242 0-0.478-0.025-0.706-0.072l0.023 0.004c0.51 1.558 1.957 2.704 3.678 2.742-1.329 1.047-3.027 1.679-4.872 1.679-0.003 0-0.005 0-0.008 0h0c-0.323 0-0.633-0.014-0.942-0.054 1.696 1.108 3.772 1.766 6.003 1.766 0.013 0 0.025-0 0.038-0h-0.002c7.243 0 11.203-6 11.203-11.2 0-0.174-0.006-0.342-0.014-0.51 0.779-0.562 1.434-1.239 1.955-2.014l0.018-0.028z"></path>
</symbol>
<symbol id="icon-group-6" viewBox="0 0 67 32">
<path fill="#8e8f99" style="fill: var(--color3, #8e8f99)" d="M33.799 15.248c-0.272-0.351-0.436-0.797-0.436-1.281 0-0.048 0.002-0.095 0.005-0.142l-0 0.006v-2.054c0-0.629 0.143-1.108 0.429-1.435s0.777-0.491 1.472-0.489c0.654 0 1.118 0.139 1.392 0.418 0.299 0.356 0.444 0.789 0.411 1.228v0.484h-1.169v-0.489c0.004-0.161-0.007-0.32-0.034-0.479-0.020-0.116-0.080-0.215-0.166-0.284l-0.001-0.001c-0.105-0.070-0.234-0.112-0.373-0.112-0.018 0-0.036 0.001-0.053 0.002l0.002-0c-0.015-0.001-0.033-0.002-0.051-0.002-0.147 0-0.283 0.044-0.397 0.12l0.003-0.002c-0.096 0.078-0.166 0.186-0.193 0.309l-0.001 0.004c-0.030 0.141-0.047 0.302-0.047 0.468 0 0.014 0 0.028 0 0.042l-0-0.002v2.492c-0.002 0.028-0.003 0.061-0.003 0.094 0 0.222 0.057 0.431 0.157 0.613l-0.003-0.007c0.061 0.075 0.139 0.134 0.23 0.169l0.004 0.001c0.095 0.036 0.199 0.050 0.302 0.039 0.149 0.011 0.299-0.030 0.414-0.113 0.090-0.075 0.153-0.18 0.174-0.3l0-0.003c0.027-0.165 0.040-0.332 0.036-0.499v-0.506h1.17v0.462c0.002 0.036 0.004 0.078 0.004 0.12 0 0.444-0.154 0.853-0.412 1.174l0.003-0.004c-0.268 0.305-0.725 0.457-1.399 0.457s-1.181-0.163-1.47-0.501zM38.667 15.27c-0.295-0.32-0.443-0.786-0.443-1.402v-2.16c0-0.61 0.148-1.072 0.443-1.385s0.789-0.469 1.482-0.468c0.688 0 1.179 0.156 1.474 0.468 0.296 0.314 0.446 0.775 0.446 1.385v2.16c0 0.61-0.15 1.078-0.45 1.4s-0.789 0.482-1.47 0.482-1.184-0.163-1.482-0.48zM40.694 14.751c0.106-0.199 0.154-0.42 0.14-0.639v-2.645c0.001-0.021 0.002-0.046 0.002-0.071 0-0.204-0.052-0.395-0.143-0.562l0.003 0.006c-0.062-0.077-0.142-0.136-0.234-0.171l-0.004-0.001c-0.068-0.027-0.147-0.042-0.229-0.042-0.028 0-0.056 0.002-0.083 0.005l0.003-0c-0.024-0.003-0.051-0.005-0.079-0.005-0.083 0-0.162 0.015-0.235 0.043l0.004-0.002c-0.097 0.036-0.178 0.096-0.24 0.171l-0.001 0.001c-0.107 0.196-0.155 0.411-0.14 0.627v2.658c-0.015 0.22 0.033 0.439 0.14 0.639 0.068 0.067 0.152 0.121 0.247 0.158 0.089 0.036 0.192 0.057 0.3 0.057s0.211-0.021 0.306-0.059l-0.006 0.002c0.095-0.037 0.178-0.091 0.247-0.158v-0.013zM43.476 9.917h1.259l0.947 3.986 0.968-3.986h1.225l0.124 5.753h-0.906l-0.097-3.998-0.934 3.998h-0.726l-0.969-4.013-0.090 4.013h-0.915l0.114-5.753zM49.41 9.917h1.961c1.129 0 1.695 0.545 1.695 1.633 0 1.043-0.595 1.564-1.785 1.563h-0.668v2.556h-1.21l0.007-5.753zM51.086 12.376c0.119 0.013 0.241 0.004 0.356-0.028s0.22-0.083 0.31-0.154c0.112-0.152 0.18-0.343 0.18-0.55 0-0.035-0.002-0.070-0.006-0.104l0 0.004c0.001-0.020 0.001-0.043 0.001-0.066 0-0.162-0.021-0.319-0.062-0.469l0.003 0.013c-0.019-0.061-0.050-0.114-0.090-0.158l0 0c-0.042-0.047-0.093-0.086-0.15-0.115l-0.003-0.001c-0.141-0.059-0.305-0.094-0.476-0.094-0.023 0-0.045 0.001-0.067 0.002l0.003-0h-0.469v1.72h0.469zM54.812 9.917h1.3l1.334 5.753h-1.129l-0.263-1.326h-1.16l-0.272 1.326h-1.145l1.334-5.753zM55.923 13.678l-0.453-2.415-0.453 2.415h0.905zM58.523 9.917h0.848l1.621 3.282v-3.282h1.005v5.753h-0.806l-1.632-3.425v3.425h-1.038l0.002-5.753zM64.351 13.476l-1.348-3.551h1.136l0.823 2.281 0.772-2.281h1.111l-1.332 3.551v2.194h-1.162v-2.194zM35.668 18.186v0.301h-0.988v2.337h-0.413v-2.337h-0.993v-0.301h2.394zM38.764 20.824h-0.32c-0.002 0-0.005 0-0.008 0-0.030 0-0.058-0.009-0.081-0.025l0 0c-0.023-0.015-0.042-0.035-0.053-0.060l-0-0.001-0.286-0.627h-1.37l-0.286 0.627c-0.009 0.028-0.023 0.052-0.043 0.071v0c-0.023 0.016-0.052 0.025-0.082 0.025-0.003 0-0.006-0-0.008-0l0 0h-0.32l1.211-2.638h0.421l1.225 2.628zM36.759 19.845h1.143l-0.484-1.074c-0.031-0.068-0.062-0.15-0.087-0.235l-0.003-0.014c-0.017 0.050-0.031 0.098-0.045 0.14l-0.044 0.11-0.479 1.072zM40.851 20.565c0.076 0.004 0.152 0.004 0.228 0 0.065-0.006 0.13-0.016 0.194-0.031 0.069-0.015 0.128-0.032 0.185-0.052l-0.010 0.003c0.053-0.018 0.107-0.041 0.162-0.064v-0.594h-0.484c-0.002 0-0.004 0-0.006 0-0.011 0-0.021-0.002-0.030-0.005l0.001 0c-0.011-0.004-0.021-0.009-0.030-0.016l0 0c-0.008-0.006-0.014-0.013-0.018-0.021l-0-0c-0.004-0.007-0.006-0.015-0.006-0.024 0-0.001 0-0.002 0-0.003v0-0.203h0.939v1.011c-0.147 0.092-0.317 0.166-0.498 0.213l-0.013 0.003c-0.1 0.025-0.201 0.043-0.303 0.054-0.106 0.011-0.229 0.017-0.353 0.017-0 0-0 0-0 0v0c-0.004 0-0.009 0-0.013 0-0.214 0-0.419-0.036-0.61-0.103l0.013 0.004c-0.186-0.065-0.347-0.158-0.486-0.277l0.002 0.002c-0.13-0.115-0.235-0.254-0.31-0.41l-0.003-0.008c-0.070-0.156-0.111-0.338-0.111-0.53 0-0.006 0-0.013 0-0.019v0.001c-0-0.005-0-0.011-0-0.017 0-0.193 0.040-0.377 0.112-0.544l-0.003 0.009c0.070-0.156 0.176-0.299 0.313-0.417 0.138-0.119 0.303-0.212 0.484-0.274 0.208-0.068 0.428-0.101 0.649-0.098 0.113 0 0.225 0.007 0.336 0.023 0.099 0.014 0.195 0.036 0.288 0.067 0.085 0.028 0.166 0.063 0.242 0.105s0.145 0.087 0.211 0.138l-0.116 0.164c-0.010 0.015-0.023 0.027-0.039 0.035l-0.001 0c-0.016 0.009-0.035 0.014-0.055 0.014h-0c-0.028-0.001-0.054-0.009-0.076-0.022l0.001 0c-0.049-0.023-0.087-0.044-0.125-0.066l0.007 0.004c-0.046-0.025-0.099-0.049-0.155-0.069l-0.008-0.002c-0.062-0.022-0.136-0.042-0.213-0.057l-0.010-0.002c-0.088-0.015-0.189-0.023-0.292-0.023-0.005 0-0.011 0-0.016 0h0.001c-0.004-0-0.010-0-0.015-0-0.162 0-0.317 0.027-0.463 0.076l0.010-0.003c-0.135 0.046-0.256 0.117-0.356 0.208-0.101 0.095-0.178 0.206-0.226 0.329-0.051 0.131-0.081 0.282-0.081 0.44s0.030 0.309 0.084 0.448l-0.003-0.008c0.053 0.124 0.136 0.237 0.242 0.332 0.1 0.090 0.22 0.161 0.353 0.209 0.154 0.046 0.317 0.063 0.479 0.052zM44.71 20.523h1.323v0.301h-1.727v-2.638h0.414l-0.010 2.337zM47.408 20.824h-0.414v-2.638h0.414v2.638zM48.947 18.198c0.025 0.012 0.046 0.028 0.064 0.048l0 0 1.769 1.989c-0.001-0.014-0.002-0.030-0.002-0.047s0.001-0.033 0.002-0.049l-0 0.002v-1.966h0.361v2.649h-0.208c-0.004 0-0.010 0.001-0.015 0.001-0.027 0-0.053-0.005-0.076-0.015l0.001 0c-0.025-0.013-0.047-0.030-0.065-0.050l-0-0-1.767-1.988v2.052h-0.346v-2.638h0.215c0.023 0 0.047 0.004 0.068 0.012zM54.19 18.186v0.29h-1.468v0.871h1.188v0.28h-1.188v0.9h1.467v0.29h-1.894v-2.632h1.894zM10.805 1.891l18.384 4.504v15.783l-18.384-4.501v-15.787zM9.626 0.545v17.897l20.74 5.083v-17.896l-20.74-5.084z"></path>
<path fill="#8e8f99" style="fill: var(--color3, #8e8f99)" d="M20.742 31.834l-20.742-5.087v-17.896l20.742 5.084v17.899z"></path>
<path fill="#8e8f99" style="fill: var(--color3, #8e8f99)" d="M9.97 1.688l18.144 4.447-7.716 6.66-18.147-4.45 7.718-6.657zM9.626 0.545l-9.626 8.306 20.742 5.085 9.624-8.306-20.74-5.086zM21.909 30.827l8.457-7.299-8.457-2.074v9.374z"></path>
</symbol>
<symbol id="icon-group-5" viewBox="0 0 44 32">
<path fill="#8e8f99" style="fill: var(--color3, #8e8f99)" d="M3.334 26.694c0.17 0.191 0.262 0.429 0.257 0.673 0.008 0.159-0.023 0.319-0.092 0.466s-0.174 0.278-0.307 0.384c-0.291 0.197-0.65 0.314-1.036 0.314-0.043 0-0.085-0.001-0.127-0.004l0.006 0h-2.035v-4.266h1.993c0.035-0.002 0.076-0.004 0.117-0.004 0.366 0 0.707 0.107 0.994 0.291l-0.007-0.004c0.129 0.097 0.231 0.22 0.298 0.358s0.097 0.289 0.089 0.44c0.012 0.235-0.070 0.466-0.232 0.652-0.157 0.168-0.365 0.288-0.599 0.333l-0.007 0.001c0.27 0.045 0.513 0.174 0.687 0.365zM0.947 26.050h0.852c0.193 0.013 0.385-0.037 0.541-0.141 0.062-0.050 0.112-0.114 0.145-0.186l0.001-0.003c0.025-0.055 0.039-0.118 0.039-0.185 0-0.015-0.001-0.030-0.002-0.045l0 0.002c0.001-0.011 0.001-0.023 0.001-0.036 0-0.069-0.015-0.134-0.041-0.193l0.001 0.003c-0.034-0.076-0.082-0.139-0.141-0.19l-0.001-0.001c-0.138-0.091-0.307-0.146-0.489-0.146-0.024 0-0.049 0.001-0.073 0.003l0.003-0h-0.839v1.119zM2.424 27.687c0.066-0.052 0.12-0.117 0.156-0.192l0.001-0.003c0.029-0.060 0.046-0.131 0.046-0.205 0-0.012-0-0.023-0.001-0.035l0 0.002c0.001-0.009 0.001-0.020 0.001-0.030 0-0.077-0.018-0.149-0.049-0.214l0.001 0.003c-0.038-0.079-0.093-0.145-0.159-0.196l-0.001-0.001c-0.147-0.098-0.328-0.156-0.522-0.156-0.020 0-0.039 0.001-0.059 0.002l0.003-0h-0.895v1.174h0.905c0.204 0.010 0.406-0.042 0.572-0.148zM7.408 28.529l-1.109-1.667h-0.417v1.667h-0.953v-4.266h1.805c0.039-0.003 0.084-0.004 0.13-0.004 0.424 0 0.815 0.138 1.132 0.371l-0.005-0.004c0.253 0.232 0.405 0.537 0.429 0.861s-0.080 0.644-0.295 0.904c-0.223 0.23-0.527 0.383-0.861 0.434l1.181 1.704h-1.037zM5.882 26.28h0.78c0.542 0 0.813-0.216 0.813-0.646 0.001-0.010 0.001-0.023 0.001-0.035 0-0.081-0.016-0.157-0.046-0.227l0.001 0.004c-0.037-0.087-0.089-0.161-0.155-0.221l-0-0c-0.148-0.11-0.335-0.176-0.537-0.176-0.027 0-0.053 0.001-0.080 0.003l0.003-0h-0.79l0.010 1.298zM12.621 27.67h-1.901l-0.336 0.858h-1l1.746-4.218h1.081l1.738 4.218h-1l-0.328-0.858zM12.367 27.023l-0.695-1.8-0.694 1.8h1.389zM19.146 28.529h-0.946l-2.123-2.901v2.901h-0.945v-4.266h0.945l2.122 2.918v-2.918h0.947v4.266zM24.55 27.507c-0.206 0.329-0.498 0.587-0.844 0.748l-0.012 0.005c-0.412 0.188-0.87 0.28-1.331 0.269h-1.686v-4.266h1.686c0.023-0.001 0.051-0.001 0.078-0.001 0.453 0 0.884 0.097 1.272 0.271l-0.020-0.008c0.362 0.165 0.661 0.424 0.856 0.744 0.195 0.347 0.296 0.73 0.296 1.119-0.001 0.411-0.111 0.797-0.302 1.13l0.006-0.011zM23.466 27.405c0.256-0.263 0.416-0.622 0.419-1.018v-0.001c-0.003-0.396-0.162-0.755-0.419-1.018l0 0c-0.294-0.229-0.669-0.366-1.076-0.366-0.038 0-0.076 0.001-0.114 0.004l0.005-0h-0.657v2.762h0.657c0.033 0.002 0.071 0.003 0.11 0.003 0.407 0 0.781-0.138 1.080-0.369l-0.004 0.003zM13.213 0.534s12.221 4.153 11.962 10.163v10.166s-12.211-4.156-11.958-10.166l-0.004-10.163zM36.062 18.483c2.308-1.43 4.977-2.317 7.764-2.576v-3.183c-3.211 1.114-5.935 3.134-7.764 5.758z"></path>
<path fill="#8e8f99" style="fill: var(--color3, #8e8f99)" d="M34.675 19.442c1.888-3.425 5.164-6.067 9.151-7.384v-9.17s-17.404 5.917-17.036 14.476v14.474s0.776-0.264 1.996-0.761c0-0.463 0-0.929 0.056-1.398 0.36-3.974 2.458-7.656 5.834-10.237z"></path>
<path fill="#8e8f99" style="fill: var(--color3, #8e8f99)" d="M33.020 24.819c0.103-1.095 0.318-2.101 0.637-3.060l-0.028 0.096c-2.102 2.229-3.375 4.995-3.64 7.909-0.025 0.275-0.039 0.55-0.046 0.833 1.458-0.627 2.558-1.159 3.636-1.727l-0.288 0.138c-0.208-0.889-0.328-1.909-0.328-2.958 0-0.434 0.020-0.863 0.060-1.287l-0.004 0.054zM33.712 24.871c-0.034 0.351-0.053 0.76-0.053 1.172 0 0.928 0.098 1.834 0.284 2.707l-0.015-0.085c4.755-2.561 10.097-6.518 9.891-11.302v-0.417c-3.397 0.343-6.575 1.68-9.047 3.806-0.545 1.204-0.922 2.6-1.056 4.067l-0.004 0.051z"></path>
</symbol>
<symbol id="icon-group-4" viewBox="0 0 66 32">
<path fill="#8e8f99" style="fill: var(--color3, #8e8f99)" d="M10.207 9.77h-0.002c-1.861 0-3.372 1.36-3.372 3.039v0.002c0 1.678 1.51 3.039 3.372 3.039h0.002c1.862 0 3.372-1.36 3.372-3.039v-0.002c0-1.678-1.509-3.039-3.372-3.039zM35.092 8.798c-0.005-2.331-1.034-4.566-2.863-6.216-1.829-1.648-4.307-2.577-6.894-2.583-2.587 0.004-5.066 0.933-6.896 2.582s-2.86 3.885-2.865 6.217v12.858s19.515-1.959 19.517-12.855v-0.002zM0 25.876c0.005 1.623 0.721 3.177 1.993 4.325s2.997 1.794 4.796 1.799c1.799-0.005 3.523-0.651 4.795-1.798s1.989-2.701 1.994-4.324v-8.945s-13.579 1.363-13.579 8.944zM6.789 27.479c-0.351 0-0.695-0.094-0.988-0.27-0.285-0.171-0.51-0.416-0.651-0.71l-0.004-0.010c-0.085-0.18-0.135-0.391-0.135-0.613 0-0.111 0.012-0.218 0.036-0.322l-0.002 0.010c0.077-0.329 0.249-0.61 0.485-0.82l0.002-0.001c0.247-0.221 0.557-0.376 0.9-0.437l0.011-0.002c0.344-0.062 0.702-0.030 1.027 0.091s0.603 0.326 0.798 0.59 0.3 0.574 0.3 0.891c0.001 0.211-0.044 0.42-0.133 0.616s-0.22 0.372-0.385 0.522c-0.163 0.147-0.355 0.265-0.565 0.345l-0.012 0.004c-0.202 0.078-0.436 0.123-0.68 0.123-0.001 0-0.001 0-0.002 0h0v-0.006zM19.207 24.597v3.33h-0.686v-3.33h0.686zM20.534 26.019v0.535h-1.514v-0.535h1.514zM20.693 24.597v0.537h-1.673v-0.537h1.673zM23.826 26.184v0.158c0 0.254-0.034 0.48-0.103 0.681-0.066 0.199-0.165 0.37-0.292 0.517l0.002-0.002c-0.125 0.14-0.275 0.247-0.448 0.322-0.163 0.071-0.354 0.112-0.554 0.112-0.007 0-0.014-0-0.022-0h0.001c-0.208 0-0.4-0.037-0.574-0.112-0.176-0.077-0.326-0.186-0.447-0.321l-0.001-0.001c-0.127-0.145-0.228-0.316-0.292-0.505l-0.003-0.011c-0.065-0.194-0.103-0.418-0.103-0.651 0-0.011 0-0.021 0-0.032l-0 0.002v-0.158c0-0.254 0.034-0.482 0.103-0.681 0.069-0.201 0.165-0.372 0.29-0.515 0.126-0.14 0.276-0.25 0.448-0.324 0.174-0.075 0.365-0.112 0.574-0.112 0.211 0 0.402 0.037 0.574 0.112 0.174 0.075 0.323 0.183 0.448 0.325 0.126 0.142 0.224 0.313 0.293 0.515 0.070 0.199 0.105 0.426 0.105 0.681zM23.133 26.341v-0.162c0-0.176-0.016-0.332-0.048-0.466-0.029-0.128-0.078-0.242-0.144-0.342l0.002 0.004c-0.058-0.087-0.135-0.157-0.225-0.204l-0.003-0.002c-0.086-0.044-0.187-0.070-0.295-0.070-0.005 0-0.010 0-0.015 0h0.001c-0.116 0-0.219 0.023-0.308 0.070-0.093 0.050-0.169 0.12-0.225 0.204l-0.001 0.002c-0.063 0.097-0.111 0.21-0.138 0.332l-0.001 0.007c-0.030 0.131-0.048 0.282-0.048 0.437 0 0.010 0 0.020 0 0.031l-0-0.002v0.162c0 0.176 0.016 0.331 0.048 0.467 0.032 0.134 0.080 0.247 0.142 0.341 0.058 0.087 0.135 0.157 0.225 0.206l0.003 0.002c0.090 0.047 0.193 0.070 0.308 0.070s0.219-0.023 0.309-0.070c0.093-0.050 0.169-0.121 0.225-0.206l0.001-0.002c0.063-0.098 0.111-0.211 0.138-0.333l0.001-0.007c0.031-0.136 0.048-0.291 0.048-0.467zM26.053 27.055c0-0.002 0-0.005 0-0.007 0-0.055-0.010-0.107-0.028-0.156l0.001 0.003c-0.020-0.054-0.053-0.098-0.095-0.132l-0.001-0c-0.057-0.047-0.123-0.088-0.194-0.119l-0.005-0.002c-0.089-0.041-0.199-0.083-0.312-0.118l-0.020-0.005c-0.175-0.057-0.317-0.112-0.456-0.175l0.026 0.011c-0.136-0.062-0.253-0.133-0.361-0.216l0.004 0.003c-0.098-0.078-0.179-0.173-0.239-0.281l-0.003-0.005c-0.055-0.105-0.088-0.229-0.088-0.361 0-0.006 0-0.011 0-0.017v0.001c-0-0.003-0-0.007-0-0.011 0-0.134 0.034-0.26 0.093-0.371l-0.002 0.004c0.061-0.115 0.147-0.212 0.256-0.293 0.109-0.083 0.24-0.146 0.389-0.19 0.151-0.044 0.316-0.066 0.496-0.066 0.245 0 0.46 0.044 0.642 0.133s0.325 0.21 0.425 0.364c0.101 0.154 0.153 0.33 0.153 0.528h-0.681c0-0.003 0-0.008 0-0.012 0-0.090-0.023-0.174-0.063-0.247l0.001 0.003c-0.042-0.076-0.104-0.137-0.18-0.175l-0.002-0.001c-0.083-0.041-0.18-0.064-0.283-0.064-0.008 0-0.017 0-0.025 0l0.001-0c-0.007-0-0.015-0-0.023-0-0.099 0-0.193 0.020-0.279 0.057l0.005-0.002c-0.074 0.030-0.135 0.080-0.179 0.143l-0.001 0.001c-0.037 0.055-0.059 0.122-0.059 0.195 0 0.002 0 0.004 0 0.007v-0c0 0.056 0.013 0.107 0.041 0.153 0.035 0.051 0.077 0.094 0.127 0.127l0.002 0.001c0.056 0.039 0.125 0.077 0.208 0.112s0.178 0.069 0.286 0.103c0.182 0.055 0.341 0.116 0.478 0.185s0.254 0.145 0.347 0.231c0.094 0.086 0.163 0.182 0.211 0.29s0.070 0.231 0.070 0.368c0 0.010 0.001 0.021 0.001 0.032 0 0.265-0.129 0.5-0.328 0.645l-0.002 0.002c-0.106 0.080-0.234 0.14-0.382 0.181-0.143 0.040-0.307 0.063-0.477 0.063-0.007 0-0.014-0-0.020-0h0.001c-0.164 0-0.327-0.022-0.487-0.065-0.166-0.046-0.312-0.114-0.442-0.202l0.005 0.003c-0.128-0.088-0.233-0.201-0.308-0.333l-0.003-0.005c-0.078-0.137-0.116-0.3-0.116-0.487h0.688c0 0.104 0.016 0.191 0.048 0.263 0.031 0.070 0.077 0.128 0.134 0.173l0.001 0.001c0.060 0.044 0.13 0.077 0.207 0.095l0.004 0.001c0.082 0.020 0.172 0.030 0.269 0.030 0.008 0 0.017 0 0.026 0 0.096 0 0.188-0.018 0.272-0.052l-0.005 0.002c0.135-0.054 0.229-0.184 0.229-0.336 0-0.002 0-0.004-0-0.006v0zM28.694 24.597v3.33h-0.684v-3.33h0.684zM29.719 24.597v0.537h-2.716v-0.537h2.716zM32.343 27.391v0.535h-1.772v-0.535h1.772zM30.796 24.597v3.33h-0.687v-3.33h0.687zM32.112 25.953v0.521h-1.541v-0.521h1.541zM32.341 24.597v0.537h-1.77v-0.537h1.77zM32.744 24.597h1.241c0.255 0 0.474 0.038 0.656 0.114 0.185 0.076 0.326 0.19 0.425 0.339s0.148 0.333 0.148 0.551c0 0.179-0.030 0.332-0.091 0.46-0.060 0.128-0.146 0.234-0.252 0.316l-0.002 0.001c-0.109 0.084-0.236 0.152-0.372 0.199l-0.009 0.003-0.217 0.115h-1.079l-0.005-0.535h0.802c0.007 0 0.015 0 0.023 0 0.101 0 0.196-0.024 0.281-0.066l-0.004 0.002c0.077-0.041 0.138-0.102 0.178-0.176l0.001-0.002c0.039-0.073 0.062-0.161 0.062-0.253 0-0.004-0-0.009-0-0.013v0.001c0-0.004 0-0.010 0-0.015 0-0.095-0.022-0.185-0.061-0.265l0.002 0.004c-0.040-0.078-0.103-0.14-0.179-0.178l-0.002-0.001c-0.082-0.039-0.179-0.062-0.281-0.062-0.008 0-0.016 0-0.025 0l0.001-0h-0.556v2.793h-0.685v-3.33zM34.605 27.927l-0.759-1.485 0.724-0.005 0.769 1.457v0.031h-0.734zM38.206 26.74h-0.848v-0.536h0.848c0.009 0 0.019 0.001 0.029 0.001 0.106 0 0.206-0.024 0.295-0.066l-0.004 0.002c0.078-0.041 0.141-0.104 0.179-0.181l0.001-0.002c0.036-0.079 0.057-0.172 0.057-0.27s-0.021-0.19-0.058-0.274l0.002 0.004c-0.039-0.087-0.101-0.157-0.178-0.205l-0.002-0.001c-0.085-0.049-0.186-0.079-0.295-0.079-0.009 0-0.018 0-0.026 0.001l0.001-0h-0.611v2.793h-0.685v-3.33h1.296c0.261 0 0.484 0.047 0.671 0.142 0.187 0.093 0.33 0.222 0.429 0.386s0.148 0.353 0.148 0.564c0 0.215-0.049 0.401-0.148 0.558s-0.242 0.279-0.429 0.364c-0.187 0.086-0.41 0.128-0.671 0.128zM42.162 27.391v0.535h-1.772v-0.535h1.772zM40.614 24.597v3.33h-0.687v-3.33h0.687zM41.931 25.953v0.521h-1.541v-0.521h1.541zM42.16 24.597v0.537h-1.769v-0.537h1.77zM44.096 24.597v3.33h-0.683v-3.33h0.684zM45.121 24.597v0.537h-2.716v-0.537h2.716zM47.746 27.391v0.535h-1.772v-0.535h1.772zM46.198 24.597v3.33h-0.686v-3.33h0.686zM47.515 25.953v0.521h-1.541v-0.521h1.541zM47.743 24.597v0.537h-1.769v-0.537h1.769zM48.146 24.597h1.241c0.255 0 0.474 0.038 0.657 0.114s0.326 0.19 0.425 0.339c0.098 0.149 0.148 0.333 0.148 0.551 0 0.179-0.031 0.332-0.091 0.46s-0.146 0.234-0.252 0.316l-0.002 0.001c-0.109 0.084-0.236 0.152-0.373 0.199l-0.009 0.003-0.217 0.115h-1.079l-0.005-0.535h0.803c0.007 0 0.014 0 0.022 0 0.101 0 0.196-0.024 0.281-0.066l-0.004 0.002c0.077-0.041 0.138-0.102 0.178-0.176l0.001-0.002c0.039-0.074 0.063-0.162 0.063-0.255 0-0.004-0-0.007-0-0.011v0.001c0-0.004 0-0.009 0-0.014 0-0.096-0.022-0.186-0.062-0.266l0.002 0.004c-0.040-0.078-0.102-0.14-0.179-0.178l-0.002-0.001c-0.082-0.039-0.179-0.062-0.281-0.062-0.008 0-0.016 0-0.025 0l0.001-0h-0.555v2.793h-0.686v-3.33zM50.007 27.927l-0.759-1.485 0.725-0.005 0.768 1.457v0.031h-0.734zM52.88 27.055c0-0.002 0-0.003 0-0.005 0-0.056-0.010-0.109-0.029-0.158l0.001 0.003c-0.020-0.054-0.053-0.098-0.095-0.132l-0.001-0c-0.057-0.047-0.123-0.088-0.194-0.119l-0.005-0.002c-0.089-0.041-0.198-0.083-0.311-0.118l-0.020-0.005c-0.176-0.056-0.318-0.112-0.456-0.175l0.026 0.011c-0.136-0.062-0.253-0.133-0.361-0.216l0.004 0.003c-0.098-0.078-0.179-0.173-0.239-0.281l-0.002-0.005c-0.055-0.105-0.088-0.229-0.088-0.361 0-0.006 0-0.011 0-0.017v0.001c0-0.139 0.030-0.265 0.091-0.377 0.061-0.115 0.147-0.212 0.256-0.293 0.109-0.083 0.24-0.146 0.389-0.19 0.151-0.044 0.316-0.066 0.496-0.066 0.245 0 0.46 0.044 0.642 0.133s0.325 0.21 0.425 0.364c0.102 0.154 0.153 0.33 0.153 0.528h-0.681c0-0.003 0-0.008 0-0.012 0-0.090-0.023-0.174-0.063-0.247l0.001 0.003c-0.042-0.076-0.104-0.137-0.18-0.175l-0.002-0.001c-0.083-0.041-0.18-0.064-0.283-0.064-0.008 0-0.017 0-0.025 0l0.001-0c-0.007-0-0.015-0-0.023-0-0.099 0-0.193 0.020-0.279 0.057l0.005-0.002c-0.074 0.030-0.135 0.080-0.178 0.143l-0.001 0.001c-0.037 0.055-0.059 0.123-0.059 0.196 0 0.002 0 0.004 0 0.005v-0c0 0.056 0.013 0.107 0.041 0.153 0.035 0.051 0.077 0.094 0.127 0.127l0.002 0.001c0.056 0.039 0.125 0.077 0.208 0.112s0.178 0.069 0.286 0.103c0.182 0.055 0.341 0.116 0.478 0.185s0.254 0.145 0.347 0.231c0.094 0.086 0.163 0.182 0.211 0.29s0.070 0.231 0.070 0.368c0 0.010 0.001 0.021 0.001 0.032 0 0.265-0.129 0.5-0.328 0.645l-0.002 0.002c-0.106 0.080-0.234 0.14-0.382 0.181-0.143 0.040-0.307 0.063-0.477 0.063-0.007 0-0.013-0-0.020-0h0.001c-0.165 0-0.328-0.022-0.487-0.065-0.166-0.046-0.312-0.114-0.442-0.202l0.005 0.003c-0.129-0.088-0.233-0.201-0.309-0.333l-0.003-0.005c-0.078-0.137-0.116-0.3-0.116-0.487h0.688c0 0.104 0.016 0.191 0.048 0.263 0.031 0.070 0.077 0.128 0.134 0.173l0.001 0.001c0.060 0.044 0.13 0.077 0.207 0.095l0.004 0.001c0.082 0.020 0.172 0.030 0.27 0.030 0.008 0 0.016 0 0.025 0 0.096 0 0.188-0.018 0.272-0.052l-0.005 0.002c0.135-0.054 0.229-0.184 0.229-0.336 0-0.002 0-0.003-0-0.005v0z"></path>
</symbol>
<symbol id="icon-group-3" viewBox="0 0 35 32">
<path fill="#8e8f99" style="fill: var(--color3, #8e8f99)" d="M7.36 27.386c0.011 0.001 0.022 0.003 0.032 0.007l-0.001-0c0.011 0.004 0.020 0.009 0.027 0.016l-0-0 0.15 0.142c-0.117 0.114-0.258 0.205-0.414 0.265l-0.008 0.003c-0.191 0.068-0.395 0.101-0.6 0.096-0.009 0-0.021 0-0.032 0-0.191 0-0.374-0.033-0.544-0.094l0.011 0.004c-0.164-0.059-0.305-0.145-0.425-0.254l0.001 0.001c-0.116-0.108-0.209-0.238-0.272-0.385l-0.003-0.007c-0.061-0.144-0.096-0.312-0.096-0.488 0-0.005 0-0.010 0-0.015v0.001c-0-0.005-0-0.011-0-0.016 0-0.177 0.038-0.345 0.107-0.496l-0.003 0.008c0.065-0.146 0.165-0.279 0.291-0.392 0.128-0.111 0.282-0.197 0.451-0.256 0.185-0.061 0.382-0.091 0.581-0.090 0.184-0.003 0.368 0.024 0.539 0.082 0.149 0.056 0.286 0.132 0.404 0.227l-0.126 0.151c-0.009 0.011-0.020 0.020-0.031 0.027l-0.001 0c-0.013 0.007-0.028 0.012-0.044 0.012-0.002 0-0.005-0-0.007-0l0 0c-0.020-0.001-0.039-0.007-0.055-0.017l0.001 0-0.068-0.040-0.093-0.051c-0.086-0.041-0.186-0.073-0.291-0.090l-0.006-0.001c-0.062-0.010-0.132-0.016-0.205-0.016-0.007 0-0.014 0-0.020 0h0.001c-0.005-0-0.010-0-0.015-0-0.144 0-0.282 0.025-0.411 0.070l0.009-0.003c-0.126 0.044-0.235 0.108-0.328 0.19l0.001-0.001c-0.094 0.088-0.166 0.191-0.212 0.302-0.049 0.114-0.077 0.246-0.077 0.385 0 0.005 0 0.009 0 0.014v-0.001c-0 0.005-0 0.010-0 0.015 0 0.14 0.028 0.274 0.080 0.396l-0.003-0.007c0.096 0.23 0.283 0.405 0.515 0.485l0.006 0.002c0.123 0.044 0.254 0.065 0.387 0.064 0.077 0.001 0.154-0.003 0.229-0.013 0.191-0.019 0.361-0.094 0.498-0.208l-0.001 0.001c0.019-0.016 0.044-0.025 0.071-0.026h0zM11.701 26.676c0.003 0.17-0.032 0.34-0.101 0.5-0.061 0.145-0.158 0.277-0.283 0.388s-0.276 0.197-0.444 0.254c-0.171 0.057-0.367 0.090-0.571 0.090s-0.401-0.033-0.584-0.094l0.013 0.004c-0.171-0.059-0.318-0.146-0.444-0.257l0.002 0.001c-0.12-0.107-0.216-0.237-0.282-0.384l-0.003-0.007c-0.064-0.148-0.102-0.32-0.102-0.5s0.037-0.353 0.105-0.509l-0.003 0.008c0.065-0.146 0.161-0.279 0.286-0.394 0.126-0.107 0.276-0.191 0.442-0.245 0.368-0.123 0.775-0.123 1.142 0 0.167 0.058 0.318 0.144 0.443 0.255 0.237 0.212 0.386 0.518 0.386 0.859 0 0.011-0 0.021-0 0.031l0-0.002zM11.306 26.676c0.003-0.136-0.020-0.272-0.071-0.402-0.091-0.233-0.279-0.411-0.513-0.488l-0.006-0.002c-0.124-0.042-0.267-0.066-0.415-0.066s-0.291 0.024-0.425 0.069l0.009-0.003c-0.123 0.043-0.229 0.108-0.319 0.19l0.001-0.001c-0.087 0.082-0.157 0.182-0.201 0.294l-0.002 0.005c-0.095 0.262-0.095 0.542 0 0.803 0.042 0.111 0.112 0.213 0.203 0.3 0.088 0.082 0.197 0.146 0.318 0.188 0.268 0.086 0.562 0.086 0.831 0 0.12-0.042 0.229-0.106 0.317-0.188 0.091-0.087 0.159-0.19 0.202-0.3 0.050-0.129 0.075-0.266 0.072-0.402zM14.664 27.097l0.040 0.090c0.015-0.032 0.027-0.061 0.043-0.090 0.014-0.031 0.031-0.060 0.049-0.088l0.96-1.491c0.019-0.027 0.036-0.042 0.054-0.048s0.041-0.008 0.064-0.008c0.005 0 0.011 0 0.016 0l-0.001-0h0.284v2.426h-0.336v-1.859c-0.001-0.013-0.001-0.027-0.001-0.042s0.001-0.029 0.002-0.044l-0 0.002-0.966 1.512c-0.013 0.024-0.033 0.042-0.056 0.055l-0.001 0c-0.024 0.013-0.052 0.020-0.081 0.020-0 0-0.001 0-0.001 0h-0.054c-0.001 0-0.001 0-0.002 0-0.030 0-0.057-0.008-0.082-0.021l0.001 0c-0.024-0.013-0.043-0.031-0.055-0.054l-0-0.001-0.994-1.522v1.947h-0.325v-2.421h0.284c0.004-0 0.008-0 0.013-0 0.024 0 0.046 0.003 0.068 0.009l-0.002-0c0.023 0.009 0.041 0.025 0.052 0.046l0 0.001 0.98 1.493c0.018 0.025 0.035 0.054 0.048 0.084l0.001 0.003zM18.277 26.977v0.908h-0.376v-2.422h0.837c0.159-0.003 0.317 0.015 0.468 0.053 0.122 0.029 0.234 0.080 0.331 0.15 0.080 0.063 0.144 0.142 0.186 0.234l0.002 0.004c0.044 0.099 0.066 0.204 0.064 0.31 0 0.003 0 0.007 0 0.011 0 0.221-0.106 0.417-0.271 0.54l-0.002 0.001c-0.095 0.071-0.206 0.126-0.327 0.158l-0.007 0.002c-0.127 0.036-0.273 0.057-0.424 0.057-0.010 0-0.020-0-0.029-0l-0.453-0.007zM18.277 26.717h0.455c0.099 0.001 0.197-0.012 0.291-0.037 0.081-0.023 0.151-0.059 0.213-0.105l-0.002 0.001c0.106-0.085 0.173-0.214 0.173-0.359 0-0.002 0-0.004-0-0.006v0c0-0.007 0.001-0.016 0.001-0.025 0-0.063-0.014-0.122-0.040-0.175l0.001 0.002c-0.032-0.066-0.076-0.121-0.13-0.165l-0.001-0.001c-0.126-0.083-0.28-0.132-0.446-0.132-0.021 0-0.041 0.001-0.062 0.002l0.003-0h-0.455v0.999zM23.329 27.888h-0.297c-0.002 0-0.003 0-0.005 0-0.029 0-0.055-0.008-0.078-0.023l0.001 0c-0.021-0.014-0.037-0.033-0.049-0.055l-0-0.001-0.255-0.586h-1.284l-0.265 0.586c-0.011 0.022-0.027 0.041-0.047 0.054l-0 0c-0.022 0.015-0.050 0.025-0.080 0.025-0.002 0-0.003-0-0.005-0h-0.297l1.128-2.427h0.391l1.142 2.427zM21.469 26.988h1.060l-0.447-0.987c-0.030-0.063-0.059-0.139-0.082-0.217l-0.003-0.011-0.043 0.127c-0.014 0.039-0.028 0.074-0.041 0.102l-0.444 0.987zM24.953 25.473c0.022 0.011 0.041 0.025 0.056 0.043l0 0 1.645 1.829v-1.883h0.336v2.426h-0.188c-0.002 0-0.004 0-0.006 0-0.026 0-0.050-0.005-0.073-0.015l0.001 0c-0.023-0.012-0.043-0.027-0.060-0.045l-0-0-1.642-1.827c0.001 0.013 0.001 0.027 0.001 0.042s-0 0.029-0.001 0.044l0-0.002v1.803h-0.336v-2.426h0.199c0.023-0.001 0.046 0.003 0.068 0.011zM29.76 26.924v0.963h-0.376v-0.963l-1.039-1.461h0.336c0.003-0 0.006-0 0.009-0 0.027 0 0.052 0.008 0.073 0.021l-0.001-0c0.020 0.016 0.037 0.034 0.050 0.054l0.65 0.943c0.045 0.062 0.083 0.133 0.112 0.209l0.002 0.006 0.049-0.104c0.018-0.038 0.040-0.075 0.064-0.111l0.641-0.949c0.014-0.020 0.030-0.037 0.048-0.051l0-0c0.021-0.015 0.046-0.024 0.074-0.024 0.002 0 0.005 0 0.007 0h0.34l-1.042 1.468zM14.477 21.39c0.163 0.018 0.329 0.032 0.496 0.045 2.535-0.97 4.681-2.555 6.168-4.561s2.248-4.34 2.19-6.713l-2.794-2.388c0.568 2.527 0.302 5.138-0.768 7.544-1.070 2.404-2.902 4.507-5.292 6.073z"></path>
<path fill="#8e8f99" style="fill: var(--color3, #8e8f99)" d="M13.479 21.279l0.075 0.013c2.553-1.561 4.5-3.739 5.588-6.255s1.268-5.252 0.517-7.856l-3.981-3.401c1.61 2.796 2.258 5.924 1.869 9.021s-1.8 6.038-4.067 8.478zM26.979 12.965c-0.676 2.608-2.319 4.959-4.684 6.706-0.644 0.483-1.373 0.936-2.14 1.325l-0.085 0.039c1.925-0.483 3.696-1.339 5.173-2.499s2.624-2.595 3.35-4.194l-1.614-1.378z"></path>
<path fill="#8e8f99" style="fill: var(--color3, #8e8f99)" d="M26.346 12.581l-2.299-1.964c-0.044 2.239-0.789 4.427-2.158 6.337s-3.311 3.472-5.625 4.523h0.012c0.543-0 1.080-0.028 1.609-0.084l-0.066 0.006c2.163-0.754 4.074-1.954 5.561-3.493s2.507-3.368 2.966-5.324zM13.812 2.346l-2.741-2.346c-2.451 0.81-4.56 2.232-6.049 4.082-1.49 1.85-2.292 4.040-2.299 6.286 0.009 2.48 0.987 4.889 2.778 6.841s4.292 3.34 7.109 3.941c2.515-2.618 3.988-5.853 4.204-9.235s-0.836-6.734-3.003-9.57zM32.681 12.22c-0.010-2.944-1.383-5.764-3.82-7.845-2.435-2.081-5.737-3.254-9.182-3.263-0.009-0-0.019-0-0.029-0-1.654 0-3.245 0.271-4.73 0.771l0.105-0.030 16.788 14.344c0.547-1.167 0.866-2.534 0.868-3.976v-0.001z"></path>
</symbol>
<symbol id="icon-group-2" viewBox="0 0 25 32">
<path fill="#8e8f99" style="fill: var(--color3, #8e8f99)" d="M10.532 1.806h-0.084c-0.129-0.008-0.258-0.011-0.388-0.014h-0.28c-0.244 0-0.494 0.006-0.741 0.018-0.008-0.001-0.018-0.001-0.028-0.001s-0.020 0-0.029 0.001l0.001-0c-2.376 0.138-4.582 0.733-6.576 1.696l0.104-0.045-0.266 0.128v13.626l0.623-0.212c0.546-0.188 1.129-0.357 1.731-0.513 1.488-0.398 3.202-0.638 4.967-0.661l0.014-0v1.79c-0.223 0.001-0.439 0.007-0.655 0.018h-0.052c-1.399 0.079-2.709 0.289-3.971 0.619l0.139-0.031c-1.734 0.441-3.254 1.050-4.666 1.83l0.1-0.051v-17.475c1.379-0.82 2.975-1.488 4.665-1.921l0.127-0.028c1.353-0.364 2.907-0.576 4.51-0.582h0.267c0.314 0.008 0.622 0.022 0.91 0.044 0.829 0.060 1.597 0.187 2.339 0.378l-0.090-0.020v1.762c-0.628-0.154-1.373-0.271-2.134-0.326l-0.045-0.003-0.044-0.004c-0.152-0.013-0.304-0.026-0.446-0.026zM13.633 3.607c0.391 0.030 0.796 0.044 1.205 0.044 1.689-0.007 3.324-0.228 4.881-0.639l-0.135 0.030c1.734-0.442 3.252-1.052 4.665-1.831l-0.101 0.051v17.163c-1.379 0.819-2.975 1.487-4.664 1.921l-0.127 0.028c-1.353 0.363-2.908 0.574-4.511 0.581h-0.004c-0.033 0-0.072 0-0.111 0-1.177 0-2.319-0.147-3.409-0.425l0.095 0.021v-17.275c0.265 0.062 0.537 0.118 0.814 0.164 0.455 0.077 0.934 0.133 1.401 0.167zM22.367 3.74l-0.623 0.209c-0.572 0.193-1.151 0.365-1.731 0.518-1.551 0.415-3.332 0.657-5.169 0.663h-0.004c-0.406 0-0.78-0.011-1.141-0.034l-0.497-0.033v14.017l0.426 0.037c0.395 0.035 0.803 0.052 1.214 0.052 1.45-0.006 2.853-0.198 4.189-0.553l-0.116 0.026c1.221-0.31 2.281-0.702 3.285-1.189l-0.102 0.044 0.266-0.128v-13.63z"></path>
<path fill="#8e8f99" style="fill: var(--color3, #8e8f99)" d="M1.684 25.977c-0.167-0.173-0.401-0.281-0.661-0.281-0.011 0-0.023 0-0.034 0.001l0.002-0c-0.004-0-0.009-0-0.014-0-0.139 0-0.272 0.028-0.393 0.078l0.007-0.003c-0.237 0.095-0.42 0.28-0.51 0.512l-0.002 0.006c-0.049 0.123-0.073 0.254-0.071 0.386v2.335c-0.006 0.164 0.026 0.328 0.092 0.479 0.055 0.12 0.135 0.226 0.234 0.313 0.093 0.078 0.202 0.135 0.32 0.166 0.114 0.031 0.231 0.048 0.349 0.048 0.13 0.001 0.258-0.026 0.377-0.081 0.351-0.156 0.591-0.5 0.591-0.901v-0.261h-0.611v0.208c0 0.004 0 0.009 0 0.014 0 0.070-0.013 0.136-0.037 0.198l0.001-0.004c-0.021 0.052-0.051 0.095-0.089 0.132l-0 0c-0.070 0.054-0.159 0.088-0.255 0.089h-0c-0.011 0.001-0.023 0.002-0.036 0.002-0.103 0-0.194-0.050-0.25-0.127l-0.001-0.001c-0.051-0.082-0.082-0.182-0.082-0.289 0-0.008 0-0.016 0.001-0.024l-0 0.001v-2.177c-0.004-0.121 0.022-0.24 0.075-0.349 0.056-0.087 0.153-0.143 0.262-0.143 0.013 0 0.025 0.001 0.038 0.002l-0.001-0c0.003-0 0.007-0 0.012-0 0.107 0 0.201 0.052 0.26 0.131l0.001 0.001c0.063 0.082 0.101 0.187 0.101 0.3 0 0.005-0 0.009-0 0.014v-0.001 0.202h0.604v-0.238c0-0.003 0-0.007 0-0.011 0-0.143-0.027-0.28-0.077-0.405l0.003 0.007c-0.048-0.128-0.117-0.237-0.205-0.329l0 0zM5.31 25.951c-0.186-0.158-0.429-0.255-0.694-0.257h-0c-0.124 0-0.248 0.023-0.364 0.066-0.252 0.090-0.451 0.276-0.557 0.511l-0.002 0.006c-0.062 0.142-0.092 0.297-0.089 0.452v2.239c-0.004 0.158 0.026 0.314 0.089 0.458 0.055 0.121 0.135 0.228 0.236 0.313 0.094 0.086 0.203 0.154 0.322 0.197 0.117 0.043 0.24 0.065 0.364 0.066 0.267-0.001 0.51-0.1 0.695-0.264l-0.001 0.001c0.097-0.087 0.176-0.194 0.23-0.313 0.063-0.144 0.093-0.301 0.089-0.458v-2.239c0-0.006 0-0.013 0-0.020 0-0.156-0.033-0.305-0.092-0.439l0.003 0.007c-0.057-0.128-0.135-0.237-0.23-0.327l-0-0zM5.025 28.969c0.001 0.010 0.002 0.023 0.002 0.035 0 0.114-0.047 0.216-0.123 0.289l-0 0c-0.077 0.065-0.178 0.105-0.287 0.105s-0.21-0.040-0.288-0.105l0.001 0.001c-0.076-0.073-0.123-0.175-0.123-0.289 0-0.012 0.001-0.025 0.002-0.037l-0 0.002v-2.239c-0.001-0.010-0.001-0.022-0.001-0.034 0-0.113 0.047-0.216 0.123-0.289l0-0c0.077-0.065 0.178-0.105 0.287-0.105s0.21 0.040 0.288 0.105l-0.001-0.001c0.076 0.073 0.123 0.175 0.123 0.289 0 0.012-0.001 0.025-0.002 0.037l0-0.002v2.24zM10.072 29.969v-4.24h-0.586l-0.771 2.244h-0.010l-0.777-2.244h-0.58v4.239h0.606v-2.578h0.011l0.593 1.823h0.302l0.598-1.823h0.010v2.578h0.606zM13.513 26.027c-0.093-0.105-0.211-0.185-0.342-0.232-0.124-0.042-0.267-0.066-0.416-0.066-0.008 0-0.016 0-0.024 0l0.001-0h-0.9v4.24h0.604v-1.656h0.311c0.189 0.009 0.376-0.031 0.545-0.116 0.139-0.078 0.251-0.188 0.329-0.32l0.002-0.004c0.070-0.113 0.117-0.238 0.138-0.369 0.021-0.133 0.033-0.287 0.033-0.444 0-0.013-0-0.027-0-0.040l0 0.002c0.006-0.203-0.014-0.407-0.059-0.606-0.043-0.153-0.12-0.284-0.223-0.39l0 0zM13.201 27.319c-0.003 0.081-0.023 0.157-0.057 0.224l0.001-0.003c-0.035 0.065-0.089 0.116-0.154 0.147l-0.002 0.001c-0.075 0.034-0.162 0.054-0.254 0.054-0.011 0-0.022-0-0.033-0.001l0.002 0h-0.276v-1.441h0.311c0.009-0 0.019-0.001 0.029-0.001 0.088 0 0.172 0.020 0.247 0.055l-0.004-0.002c0.062 0.036 0.111 0.090 0.141 0.154l0.001 0.002c0.033 0.074 0.051 0.155 0.053 0.236v0.282c0 0.098 0.006 0.201 0 0.291h-0.006zM16.374 25.729h-0.495l-0.934 4.24h0.604l0.177-0.911h0.823l0.178 0.911h0.604l-0.958-4.24zM15.817 28.481l0.297-1.537h0.011l0.295 1.537h-0.604zM20.277 28.283h-0.011l-0.912-2.554h-0.581v4.24h0.604v-2.55h0.012l0.923 2.549h0.568v-4.239h-0.604v2.554zM23.968 25.729l-0.486 1.686h-0.012l-0.486-1.686h-0.639l0.83 2.448v1.791h0.604v-1.791l0.83-2.447h-0.64zM0 31.166h0.291v0.817h0.198v-0.817h0.289v-0.167h-0.778v0.168zM2.447 30.998l-0.382 0.985h0.21l0.081-0.224h0.392l0.084 0.224h0.215l-0.391-0.985h-0.21zM2.417 31.593l0.134-0.365 0.134 0.365h-0.268zM4.866 31.62h0.228v0.127c-0.063 0.051-0.145 0.082-0.234 0.083h-0c-0.004 0-0.009 0-0.014 0-0.079 0-0.149-0.037-0.195-0.094l-0-0c-0.046-0.065-0.073-0.147-0.073-0.234 0-0.008 0-0.016 0.001-0.023l-0 0.001c0-0.219 0.095-0.329 0.283-0.329 0.006-0.001 0.014-0.001 0.021-0.001 0.097 0 0.178 0.067 0.201 0.157l0 0.001 0.194-0.038c-0.042-0.192-0.18-0.289-0.417-0.289-0.004-0-0.008-0-0.013-0-0.127 0-0.244 0.048-0.331 0.127l0-0c-0.088 0.087-0.143 0.208-0.143 0.342 0 0.013 0 0.026 0.002 0.038l-0-0.002c-0 0.007-0 0.015-0 0.023 0 0.132 0.048 0.254 0.127 0.347l-0.001-0.001c0.087 0.090 0.209 0.146 0.343 0.146 0.011 0 0.021-0 0.032-0.001l-0.001 0c0.005 0 0.010 0 0.016 0 0.155 0 0.296-0.060 0.402-0.157l-0 0v-0.388h-0.426v0.166zM7.337 30.998h-0.199v0.985h0.689v-0.167h-0.49v-0.817zM9.426 30.998h-0.199v0.985h0.199v-0.985zM11.469 31.655l-0.404-0.657h-0.193v0.985h0.185v-0.643l0.396 0.643h0.198v-0.985h-0.182v0.658zM13.315 31.549h0.49v-0.167h-0.49v-0.215h0.527v-0.168h-0.727v0.985h0.747v-0.167h-0.548v-0.266zM17.792 31.386h-0.388v-0.388h-0.197v0.984h0.197v-0.431h0.388v0.431h0.198v-0.985h-0.198v0.388zM19.649 31.549h0.492v-0.167h-0.492v-0.215h0.529v-0.168h-0.726v0.985h0.746v-0.167h-0.548v-0.266zM22.168 31.55c0.171-0.027 0.258-0.118 0.258-0.274 0.001-0.008 0.002-0.018 0.002-0.028 0-0.079-0.038-0.148-0.098-0.191l-0.001-0c-0.073-0.037-0.159-0.059-0.25-0.059-0.014 0-0.027 0-0.040 0.001l0.002-0h-0.417v0.984h0.198v-0.412h0.039c0.005-0 0.010-0 0.016-0 0.039 0 0.076 0.008 0.109 0.023l-0.002-0.001c0.029 0.018 0.053 0.042 0.070 0.072l0.215 0.313h0.236l-0.12-0.192c-0.054-0.096-0.128-0.175-0.215-0.235l-0.002-0.002zM21.969 31.413h-0.146v-0.247h0.156c0.012-0.001 0.027-0.002 0.042-0.002 0.057 0 0.111 0.009 0.163 0.026l-0.004-0.001c0.026 0.024 0.043 0.058 0.043 0.096 0 0.042-0.020 0.080-0.052 0.104l-0 0c-0.049 0.016-0.106 0.025-0.164 0.025-0.013 0-0.026-0-0.039-0.001l0.002 0zM24.068 31.549h0.49v-0.167h-0.49v-0.215h0.529v-0.168h-0.729v0.985h0.747v-0.167h-0.548v-0.266z"></path>
</symbol>
<symbol id="icon-group-1" viewBox="0 0 28 32">
<path fill="#8e8f99" style="fill: var(--color3, #8e8f99)" d="M4.085 0l4.771 4.545-8.857-0.004v22.053h23.149v-8.432l4.766 4.541v-22.703h-23.83zM22.939 17.629l-13.528-12.889h13.528v12.889zM18.739 23.368h-15.076v-14.832h1.066v13.828h14.011v1.005zM6.67 30.681l-0.562-1.156h-0.464l0.814 1.529v0.891h0.42v-0.892l0.815-1.529h-0.462l-0.562 1.155zM8.741 29.525h0.099l0.914 2.42h-0.438l-0.196-0.566h-0.937l-0.195 0.566h-0.437l0.911-2.42h0.279zM8.297 31.048h0.709l-0.354-1.027-0.354 1.027zM11.222 30.646c-0.007-0.008-0.024-0.030-0.041-0.052l-0.011-0.015c-0.054-0.069-0.102-0.147-0.142-0.23l-0.003-0.008c-0.032-0.070-0.051-0.153-0.051-0.239 0-0 0-0 0-0.001v0c0-0.126 0.026-0.234 0.078-0.325s0.128-0.162 0.218-0.208l0.003-0.001c0.095-0.050 0.207-0.075 0.334-0.075 0.123 0 0.229 0.025 0.318 0.075 0.168 0.089 0.281 0.263 0.281 0.463 0 0.075-0.016 0.146-0.044 0.21l0.001-0.003c-0.030 0.067-0.069 0.124-0.116 0.173l0-0c-0.051 0.054-0.106 0.103-0.165 0.146l-0.003 0.002-0.168 0.123 0.479 0.565c0.066-0.126 0.104-0.276 0.104-0.435 0-0.006-0-0.012-0-0.018v0.001h0.346c0 0.118-0.012 0.229-0.035 0.334-0.032 0.152-0.094 0.287-0.179 0.403l0.002-0.003 0.354 0.419h-0.463l-0.141-0.165c-0.071 0.055-0.154 0.101-0.242 0.134l-0.007 0.002c-0.109 0.040-0.235 0.063-0.367 0.063-0.003 0-0.006 0-0.009-0h0c-0.161 0-0.3-0.029-0.417-0.088-0.113-0.055-0.206-0.138-0.271-0.24l-0.002-0.003c-0.060-0.098-0.095-0.216-0.095-0.343 0-0.004 0-0.008 0-0.012v0.001c0-0.099 0.020-0.185 0.061-0.259 0.042-0.076 0.097-0.146 0.168-0.21 0.066-0.059 0.14-0.118 0.225-0.178zM11.421 30.89l-0.050 0.036c-0.051 0.039-0.094 0.085-0.13 0.136l-0.001 0.002c-0.043 0.063-0.068 0.14-0.068 0.224 0 0.067 0.017 0.131 0.046 0.187l-0.001-0.002c0.032 0.058 0.078 0.105 0.133 0.137l0.002 0.001c0.060 0.032 0.13 0.051 0.205 0.051 0.004 0 0.009-0 0.013-0h-0.001c0.092 0 0.181-0.020 0.268-0.061 0.047-0.023 0.087-0.049 0.124-0.078l-0.002 0.001-0.538-0.633zM11.516 30.448l0.148-0.099c0.059-0.036 0.109-0.082 0.149-0.135l0.001-0.001c0.028-0.045 0.045-0.1 0.045-0.159 0-0.004-0-0.008-0-0.012l0 0.001c-0.004-0.13-0.111-0.233-0.241-0.233-0.005 0-0.010 0-0.014 0l0.001-0c-0.002-0-0.005-0-0.007-0-0.099 0-0.184 0.058-0.223 0.142l-0.001 0.002c-0.018 0.040-0.029 0.088-0.029 0.137 0 0.058 0.014 0.113 0.040 0.161l-0.001-0.002c0.025 0.052 0.060 0.107 0.105 0.165l0.027 0.035zM15.751 31.158h-0.416c-0.009 0.099-0.037 0.19-0.078 0.272l0.002-0.004c-0.038 0.072-0.096 0.128-0.166 0.164l-0.002 0.001c-0.077 0.036-0.167 0.057-0.262 0.057-0.009 0-0.018-0-0.027-0.001l0.001 0c-0.004 0-0.009 0-0.014 0-0.087 0-0.169-0.022-0.24-0.060l0.003 0.001c-0.071-0.040-0.13-0.096-0.172-0.163l-0.001-0.002c-0.045-0.073-0.079-0.158-0.098-0.249l-0.001-0.005c-0.020-0.096-0.032-0.207-0.032-0.32 0-0.004 0-0.009 0-0.013v0.001-0.204c0-0.129 0.012-0.243 0.035-0.343s0.060-0.185 0.108-0.254c0.045-0.066 0.105-0.119 0.176-0.155l0.003-0.001c0.069-0.034 0.15-0.053 0.236-0.053 0.005 0 0.009 0 0.014 0h-0.001c0.116 0 0.21 0.020 0.283 0.060s0.126 0.095 0.163 0.17c0.037 0.074 0.062 0.163 0.073 0.267h0.415c-0.015-0.16-0.063-0.307-0.139-0.435l0.003 0.005c-0.074-0.125-0.179-0.226-0.305-0.292l-0.004-0.002c-0.133-0.068-0.291-0.107-0.457-0.107-0.011 0-0.022 0-0.033 0l0.002-0c-0.152 0-0.289 0.027-0.411 0.080s-0.225 0.129-0.311 0.232c-0.087 0.101-0.155 0.221-0.197 0.353l-0.002 0.007c-0.046 0.14-0.068 0.298-0.068 0.472v0.202c0 0.174 0.022 0.331 0.067 0.472s0.111 0.261 0.196 0.361c0.085 0.099 0.188 0.175 0.307 0.229 0.12 0.053 0.255 0.080 0.404 0.080 0.195 0 0.361-0.035 0.497-0.106s0.242-0.168 0.317-0.291c0.075-0.124 0.12-0.266 0.133-0.424zM18.059 30.802v-0.133c0-0.182-0.024-0.347-0.073-0.49-0.045-0.143-0.115-0.267-0.206-0.373l0.001 0.001c-0.086-0.1-0.192-0.179-0.312-0.232l-0.006-0.002c-0.123-0.054-0.259-0.082-0.409-0.082-0.148 0-0.285 0.027-0.407 0.082-0.123 0.053-0.228 0.131-0.318 0.234-0.088 0.102-0.157 0.226-0.206 0.371-0.047 0.14-0.074 0.301-0.074 0.468 0 0.008 0 0.015 0 0.023v-0.001 0.133c0 0.183 0.024 0.347 0.074 0.492 0.048 0.143 0.119 0.266 0.21 0.372l-0.001-0.001c0.090 0.102 0.196 0.18 0.317 0.235 0.123 0.053 0.259 0.080 0.408 0.080s0.286-0.027 0.409-0.080c0.123-0.054 0.229-0.133 0.316-0.235 0.088-0.102 0.157-0.225 0.204-0.37s0.072-0.309 0.072-0.492zM17.642 30.666v0.136c0 0.136-0.014 0.255-0.040 0.36-0.023 0.1-0.062 0.189-0.115 0.267l0.002-0.003c-0.047 0.068-0.108 0.122-0.18 0.16l-0.003 0.001c-0.069 0.034-0.151 0.053-0.237 0.053-0.004 0-0.008-0-0.012-0h0.001c-0.003 0-0.007 0-0.011 0-0.086 0-0.167-0.020-0.239-0.055l0.003 0.001c-0.075-0.040-0.137-0.094-0.185-0.16l-0.001-0.002c-0.052-0.076-0.092-0.164-0.115-0.259l-0.001-0.005c-0.026-0.102-0.040-0.22-0.040-0.341 0-0.007 0-0.013 0-0.020v0.001-0.136c0-0.135 0.014-0.254 0.040-0.357s0.065-0.191 0.115-0.261c0.047-0.067 0.109-0.121 0.181-0.158l0.003-0.001c0.069-0.035 0.151-0.055 0.237-0.055 0.003 0 0.007 0 0.010 0h-0c0.092 0 0.174 0.018 0.248 0.054s0.134 0.088 0.184 0.16c0.051 0.069 0.090 0.157 0.115 0.261 0.027 0.104 0.040 0.223 0.040 0.357z"></path>
</symbol>
<symbol id="icon-diagram-1" viewBox="0 0 32 32">
<path fill="#4d5ae5" style="fill: var(--color1, #4d5ae5)" d="M14.925 14.965h1.066v4.797h-1.066v-4.797zM19.19 17.097h1.066v2.665h-1.066v-2.665zM10.661 18.696h1.066v1.066h-1.066v-1.066zM7.463 18.163h1.066v1.599h-1.066v-1.599z"></path>
<path fill="#2e2f42" style="fill: var(--color4, #2e2f42)" d="M1.599 28.291h25.587c0 0 0 0 0 0 0.883 0 1.599-0.716 1.599-1.599v0-2.133c0-0.883-0.716-1.599-1.599-1.599-0 0-0 0-0.001 0h-0.533v-13.293l3.028-2.868c0.207 0.105 0.452 0.166 0.711 0.166 0.888 0 1.608-0.72 1.608-1.608s-0.72-1.608-1.608-1.608c-0.888 0-1.608 0.72-1.608 1.608 0 0.247 0.055 0.48 0.155 0.689l-0.004-0.010-2.282 2.163v-1.23c0-0.883-0.716-1.599-1.599-1.599v0h-21.322c-0 0-0 0-0.001 0-0.883 0-1.599 0.716-1.599 1.599 0 0 0 0 0 0.001v-0 15.991h-0.533c-0.883 0-1.599 0.716-1.599 1.599 0 0 0 0 0 0.001v-0 2.133c0 0.883 0.716 1.599 1.599 1.599v0zM30.384 4.837c0.294 0 0.533 0.239 0.533 0.533s-0.239 0.533-0.533 0.533v0c-0.294 0-0.533-0.239-0.533-0.533s0.239-0.533 0.533-0.533v0zM3.199 6.969c0-0.295 0.239-0.534 0.533-0.534h21.322c0.294 0 0.533 0.239 0.533 0.534v2.238l-1.066 1.013v-2.185c0-0.295-0.238-0.533-0.533-0.533h-19.19c-0.295 0-0.533 0.239-0.533 0.533v13.326c0 0.295 0.239 0.534 0.533 0.534h19.19c0.294 0 0.533-0.239 0.533-0.534v-9.674l1.066-1.010v12.283h-22.388v-15.991zM7.996 13.899c-0.001 0-0.003 0-0.005 0-0.883 0-1.599 0.716-1.599 1.599s0.716 1.599 1.599 1.599c0.432 0 0.824-0.171 1.112-0.45l-0 0 1.853 0.93c0.215 0.108 0.476 0.057 0.636-0.123l3.938-4.431 3.872 2.902c0.208 0.156 0.498 0.139 0.686-0.040l3.365-3.188v8.131h-18.123v-12.26h18.124v2.66l-3.772 3.572-3.905-2.928c-0.088-0.066-0.199-0.106-0.319-0.106-0.158 0-0.3 0.069-0.398 0.178l-0 0.001-3.993 4.493-1.493-0.746c0.011-0.064 0.018-0.129 0.021-0.194-0-0.883-0.716-1.599-1.599-1.599h-0zM8.529 15.498c0 0.294-0.239 0.533-0.533 0.533s-0.533-0.239-0.533-0.533v0c0-0.294 0.239-0.533 0.533-0.533s0.533 0.239 0.533 0.533v0zM11.727 24.026h5.331v0.533c0 0.294-0.238 0.533-0.533 0.533h-4.264c-0.294 0-0.533-0.239-0.533-0.533v0-0.533zM1.066 24.56c0-0.294 0.239-0.533 0.533-0.533h9.062v0.533c0 0 0 0 0 0 0 0.883 0.716 1.599 1.599 1.599h4.265c0.883 0 1.599-0.716 1.599-1.599 0-0 0-0 0-0.001v0-0.533h9.061c0.295 0 0.534 0.238 0.534 0.533v2.133c0 0.294-0.239 0.533-0.534 0.533h-25.586c-0.294 0-0.533-0.239-0.533-0.533v0-2.133z"></path>
</symbol>
<symbol id="icon-clock-1" viewBox="0 0 31 32">
<path fill="#2e2f42" style="fill: var(--color4, #2e2f42)" d="M29.152 13.601c-0.001-7.513-6.093-13.602-13.607-13.601s-13.602 6.093-13.601 13.607c0.002 6.034 3.931 11.149 9.37 12.929l0.096 0.027c0.053 0.017 0.11 0.026 0.166 0.025 0.108 0 0.212-0.029 0.304-0.083 0.12-0.071 0.21-0.184 0.252-0.317l3.436-10.889c0.937-0.003 1.694-0.763 1.694-1.7 0-0.939-0.761-1.7-1.7-1.7-0.269 0-0.524 0.063-0.751 0.174l0.010-0.004-4.539-4.539c-0.103-0.103-0.244-0.166-0.401-0.166-0.313 0-0.567 0.254-0.567 0.567 0 0.157 0.063 0.298 0.166 0.401v0l4.536 4.541c-0.107 0.214-0.17 0.467-0.17 0.734 0 0.535 0.252 1.011 0.643 1.316l0.004 0.003-3.273 10.376c-6.469-2.383-9.782-9.559-7.399-16.028s9.56-9.782 16.028-7.399c6.469 2.384 9.781 9.56 7.399 16.028-1.196 3.183-3.559 5.694-6.555 7.056l-0.078 0.032-0.354-1.666c-0.056-0.258-0.283-0.449-0.554-0.449-0.145 0-0.277 0.055-0.378 0.144l0.001-0-3.411 3.045c-0.117 0.104-0.19 0.255-0.19 0.424 0 0.252 0.164 0.465 0.392 0.539l0.004 0.001 4.354 1.39c0.052 0.017 0.112 0.027 0.174 0.027 0.313 0 0.567-0.254 0.567-0.567 0-0.042-0.005-0.083-0.013-0.122l0.001 0.004-0.348-1.635c4.913-2.111 8.292-6.908 8.292-12.495 0-0.010 0-0.020-0-0.030v0.002zM15.548 13.034c0.313 0 0.567 0.254 0.567 0.567s-0.254 0.567-0.567 0.567v0c-0.313 0-0.567-0.254-0.567-0.567s0.254-0.567 0.567-0.567v0zM17.416 26.247l1.941-1.732 0.536 2.524-2.477-0.793z"></path>
<path fill="#4d5ae5" style="fill: var(--color1, #4d5ae5)" d="M14.982 2.831v1.133c0 0.313 0.254 0.567 0.567 0.567s0.567-0.254 0.567-0.567v-1.133c-0.012-0.303-0.261-0.545-0.567-0.545s-0.554 0.241-0.567 0.544l-0 0.001zM4.779 13.034c-0.313 0-0.567 0.254-0.567 0.567s0.254 0.567 0.567 0.567h1.133c0.313 0 0.567-0.254 0.567-0.567s-0.254-0.567-0.567-0.567h-1.133zM26.318 14.168c0.313 0 0.567-0.254 0.567-0.567s-0.254-0.567-0.567-0.567h-1.133c-0.303 0.012-0.545 0.261-0.545 0.567s0.241 0.554 0.544 0.567l0.001 0h1.133z"></path>
</symbol>
<symbol id="icon-astronaut-1" viewBox="0 0 32 32">
<path fill="#4d5ae5" style="fill: var(--color1, #4d5ae5)" d="M31.974 4.524c-0.064-0.191-0.227-0.332-0.427-0.362l-0.003-0-1.911-0.278-0.855-1.731c-0.179-0.365-0.776-0.365-0.956 0l-0.855 1.731-1.91 0.278c-0.26 0.039-0.457 0.26-0.457 0.528 0 0.149 0.061 0.285 0.161 0.381l1.383 1.348-0.326 1.903c-0.034 0.2 0.048 0.402 0.212 0.521 0.166 0.12 0.383 0.136 0.562 0.040l1.709-0.899 1.709 0.899c0.072 0.038 0.157 0.061 0.247 0.061 0.295 0 0.534-0.239 0.534-0.534 0-0.031-0.003-0.062-0.008-0.092l0 0.003-0.326-1.903 1.383-1.348c0.099-0.097 0.161-0.233 0.161-0.382 0-0.059-0.009-0.115-0.027-0.168l0.001 0.004zM29.511 5.851c-0.125 0.122-0.183 0.299-0.153 0.472l0.191 1.114-1-0.526c-0.072-0.039-0.158-0.062-0.248-0.062s-0.177 0.023-0.251 0.063l0.003-0.001-1 0.526 0.191-1.114c0.005-0.027 0.008-0.058 0.008-0.090 0-0.15-0.061-0.285-0.161-0.382l-0.81-0.79 1.119-0.162c0.174-0.025 0.323-0.135 0.401-0.292l0.5-1.013 0.501 1.013c0.078 0.157 0.228 0.267 0.402 0.292l1.119 0.162-0.809 0.79zM26.134 20.522h-1.067v1.067h1.067v-1.067zM26.134 22.655h-1.067v1.067h1.067v-1.067z"></path>
<path fill="#4d5ae5" style="fill: var(--color1, #4d5ae5)" d="M27.2 21.589h-1.067v1.067h1.067v-1.067zM25.067 21.589h-1.067v1.067h1.067v-1.067zM22.4 26.389h-1.067v1.067h1.067v-1.067zM22.4 28.523h-1.067v1.067h1.067v-1.067zM23.467 27.456h-1.067v1.067h1.067v-1.067z"></path>
<path fill="#4d5ae5" style="fill: var(--color1, #4d5ae5)" d="M21.334 27.456h-1.067v1.067h1.067v-1.067zM16 24.256h-1.066v1.067h1.066v-1.067zM16 26.389h-1.066v1.067h1.066v-1.067zM17.067 25.323h-1.067v1.067h1.067v-1.067zM14.934 25.323h-1.067v1.067h1.067v-1.067zM5.867 6.122h-1.066v1.066h1.066v-1.066zM5.867 8.255h-1.066v1.067h1.066v-1.066zM6.933 7.189h-1.066v1.067h1.066v-1.067zM4.8 7.189h-1.067v1.067h1.067v-1.067z"></path>
<path fill="#2e2f42" style="fill: var(--color4, #2e2f42)" d="M24.715 14.159c-0.28-0.377-0.699-0.636-1.179-0.704l-0.009-0.001c-0.076-0.012-0.164-0.018-0.254-0.018-0.411 0-0.789 0.139-1.090 0.374l0.004-0.003-1.252 0.96-1.898 1.417-1.358-0.541c2.421-1.086 4.114-3.508 4.114-6.32 0-3.823-3.122-6.933-6.961-6.933s-6.962 3.11-6.962 6.933c0 1.386 0.414 2.674 1.12 3.758l-2.769-0.024c-0.008 0-0.015 0.005-0.024 0.005-0.053 0.002-0.104 0.012-0.155 0.030-0.013 0.005-0.026 0.008-0.038 0.014-0.006 0.002-0.013 0.003-0.019 0.007l-3.234 1.597-1.893 0.911c-0.024 0.011-0.045 0.023-0.064 0.036l0.001-0.001c-0.482 0.324-0.794 0.866-0.794 1.482 0 0.297 0.073 0.576 0.201 0.822l-0.005-0.010c0.22 0.429 0.595 0.745 1.056 0.89 0.161 0.053 0.345 0.083 0.537 0.083 0.308 0 0.598-0.078 0.851-0.216l-0.009 0.005 1.388-0.738 2.264-1.169 1.357-0.008-5.442 5.415c0 0.001-0.001 0.001-0.002 0.002l-1.339 1.333c-0.303 0.299-0.49 0.714-0.49 1.173 0 0.002 0 0.003 0 0.005v-0c0 0.445 0.173 0.863 0.49 1.178 0.325 0.323 0.752 0.485 1.179 0.485s0.855-0.162 1.18-0.485l1.314-1.308 1.74-1.3 0.901 0.897-3.102 3.088c-0.303 0.299-0.49 0.714-0.49 1.173 0 0.002 0 0.003 0 0.005v-0c0 0.445 0.174 0.863 0.49 1.179 0.325 0.323 0.752 0.485 1.18 0.485s0.855-0.162 1.18-0.485l3.482-3.466c0-0.001 0-0.002 0.001-0.002l1.010-1-0.004-0.003c0.007-0.006 0.015-0.009 0.022-0.015l5.166-5.658 3.471 0.494c0.020 0.003 0.044 0.004 0.068 0.004 0.070 0 0.137-0.014 0.198-0.039l-0.004 0.001c0.017-0.006 0.033-0.015 0.050-0.023 0.019-0.009 0.039-0.015 0.057-0.027l3.213-2.134c0.012-0.008 0.018-0.020 0.029-0.029 0.012-0.010 0.029-0.014 0.040-0.025l1.272-1.192c0.347-0.326 0.564-0.787 0.564-1.299 0-0.4-0.132-0.77-0.355-1.067l0.003 0.005zM2.13 17.77c-0.173 0.093-0.37 0.111-0.558 0.052-0.295-0.093-0.505-0.364-0.505-0.683 0-0.236 0.114-0.445 0.29-0.575l0.002-0.001 1.314-0.632 0.316 0.925 0.133 0.388-0.993 0.527zM5.628 15.943l-1.548 0.8-0.255-0.747-0.183-0.537 2.026-1-0.040 1.483zM20.727 9.322c0 0.918-0.219 1.785-0.599 2.559l-4.181-1.899c-0.043-0.575-0.342-1.073-0.782-1.384l-0.006-0.004 1.464-4.86c2.378 0.755 4.105 2.974 4.105 5.587zM8.938 9.322c0-3.235 2.644-5.867 5.894-5.867 0.253 0 0.5 0.022 0.745 0.053l-1.432 4.753c-0.019 0-0.037-0.005-0.057-0.005-0 0-0 0-0.001 0-1.032 0-1.869 0.835-1.872 1.866v0c0.003 1.031 0.84 1.867 1.872 1.867 0 0 0 0 0.001 0h-0c0.694 0 1.294-0.383 1.618-0.944l3.863 1.755c-1.075 1.447-2.795 2.39-4.736 2.39-3.25 0-5.895-2.633-5.895-5.867zM14.895 10.122c0 0.441-0.362 0.8-0.806 0.8-0.001 0-0.001 0-0.002 0-0.443 0-0.802-0.358-0.804-0.8v-0c0-0.441 0.361-0.8 0.806-0.8s0.806 0.359 0.806 0.8zM2.465 25.146c-0.11 0.108-0.261 0.175-0.428 0.175s-0.317-0.067-0.427-0.175l0 0c-0.109-0.108-0.176-0.257-0.176-0.422s0.067-0.315 0.176-0.422l0-0 0.962-0.959 0.851 0.848-0.958 0.955zM5.678 28.88c-0.11 0.109-0.261 0.176-0.428 0.176s-0.317-0.067-0.427-0.175l0 0c-0.109-0.108-0.176-0.257-0.176-0.422s0.067-0.315 0.176-0.422l0-0 0.963-0.959 0.851 0.848-0.96 0.955zM9.161 25.411l-0.002 0.001-1.765 1.76-0.851-0.848 1.763-1.756s0.001 0 0.002-0.001c0.040-0.040 0.065-0.088 0.090-0.135 0.007-0.014 0.020-0.026 0.026-0.040 0.017-0.041 0.019-0.085 0.025-0.129 0.004-0.024 0.014-0.047 0.014-0.073 0-0.035-0.012-0.070-0.020-0.105-0.007-0.032-0.007-0.065-0.018-0.096-0.020-0.050-0.055-0.095-0.091-0.137-0.010-0.012-0.014-0.027-0.025-0.038h-0.001l-0.001-0.002-1.607-1.6c-0.017-0.017-0.039-0.024-0.058-0.038-0.025-0.021-0.054-0.040-0.084-0.056l-0.003-0.001c-0.027-0.013-0.058-0.024-0.090-0.032l-0.003-0.001c-0.030-0.009-0.065-0.017-0.101-0.020l-0.002-0c-0.006-0-0.013-0-0.020-0-0.026 0-0.052 0.002-0.077 0.006l0.003-0c-0.039 0.004-0.074 0.011-0.108 0.021l0.004-0.001c-0.036 0.013-0.067 0.028-0.096 0.046l0.002-0.001c-0.020 0.011-0.043 0.015-0.061 0.029l-1.774 1.324-0.901-0.897 2.399-2.386 4.36 4.289-0.927 0.919zM15.979 18.394c-0.015-0.002-0.030 0.004-0.045 0.003-0.008-0-0.017-0.001-0.026-0.001-0.031 0-0.062 0.003-0.092 0.008l0.003-0c-0.070 0.011-0.132 0.035-0.187 0.069l0.002-0.001c-0.030 0.018-0.057 0.038-0.083 0.061-0.013 0.011-0.028 0.017-0.040 0.029l-4.698 5.146-4.328-4.257 2.833-2.818c0.096-0.097 0.156-0.23 0.156-0.377 0-0.295-0.239-0.534-0.534-0.534-0 0-0.001 0-0.001 0h0l-2.219 0.013 0.027-1.607 3.104 0.027c1.264 1.297 3.027 2.101 4.978 2.101 0.001 0 0.002 0 0.003 0h-0c0.438 0 0.864-0.045 1.279-0.122 0.040 0.032 0.079 0.064 0.13 0.085l2.409 0.96 0.152 0.758 0.178 0.885-3.003-0.427zM20.020 18.573l-0.314-1.558 1.447-1.080 0.947 1.257-2.080 1.381zM23.774 15.742l-0.838 0.785-0.931-1.236 0.831-0.637c0.155-0.12 0.351-0.168 0.543-0.143 0.194 0.027 0.364 0.128 0.48 0.284 0.217 0.292 0.18 0.699-0.085 0.947z"></path>
<path fill="#2e2f42" style="fill: var(--color4, #2e2f42)" d="M13.602 18.544l-2.143-2.134c-0.096-0.096-0.229-0.155-0.376-0.155s-0.28 0.059-0.376 0.155l-2.143 2.134c-0.097 0.097-0.156 0.231-0.156 0.378s0.060 0.281 0.156 0.378l-0-0 2.143 2.133c0.096 0.096 0.229 0.155 0.376 0.155s0.28-0.059 0.376-0.155l2.143-2.133c0.097-0.097 0.157-0.23 0.157-0.378s-0.060-0.282-0.157-0.378l-0-0zM11.083 20.303l-1.386-1.381 1.386-1.381 1.387 1.381-1.387 1.381zM17.164 5.071l-0.258 1.035c0.071 0.018 1.738 0.452 1.738 2.149h1.067c0-2.017-1.666-2.966-2.546-3.185zM19.711 9.322h-1.067v1.067h1.067v-1.067z"></path>
</symbol>
<symbol id="icon-antenna-1" viewBox="0 0 32 32">
<path fill="#2e2f42" style="fill: var(--color4, #2e2f42)" d="M30.773 22.098l-8.443-8.505 0.937-4.615c0.242 0.094 0.499 0.143 0.759 0.145h0.006c0.008 0 0.017 0 0.026 0 1.192 0 2.159-0.967 2.159-2.159s-0.967-2.159-2.159-2.159c-1.192 0-2.159 0.967-2.159 2.159 0 0.26 0.046 0.508 0.13 0.739l-0.005-0.015-4.96 0.605-8.091-8.133c-0.096-0.098-0.229-0.159-0.376-0.16h-0c-0.14 0.001-0.274 0.057-0.373 0.155l-1.513 1.504c-0.097 0.097-0.156 0.23-0.156 0.377s0.060 0.281 0.156 0.377v0l0.814 0.825c-1.143 2.062-1.816 4.522-1.816 7.139 0 4.106 1.656 7.825 4.336 10.526l-0.001-0.001c0.042 0.041 0.091 0.073 0.146 0.098-0.032 0.164-0.051 0.353-0.052 0.546v6.188h-6.4c-1.472 0.001-2.666 1.194-2.667 2.666v1.067c0 0.295 0.239 0.533 0.534 0.533h24.534c0.294 0 0.534-0.239 0.534-0.534v-1.067c-0.002-1.472-1.195-2.665-2.667-2.666h-6.4v-2.742c1.003 0.21 2.024 0.317 3.049 0.32 2.58-0.003 5.005-0.663 7.117-1.822l-0.077 0.039 0.819 0.823c0.099 0.101 0.235 0.159 0.377 0.16 0.14-0.001 0.274-0.056 0.373-0.155l1.512-1.505c0.096-0.097 0.156-0.23 0.156-0.377s-0.060-0.28-0.156-0.377v0zM23.28 6.233c0.193-0.192 0.458-0.31 0.752-0.31 0.589 0 1.067 0.478 1.067 1.066s-0.477 1.066-1.067 1.066c-0 0-0 0-0 0h-0.003c-0.587-0.003-1.061-0.479-1.061-1.066 0-0.296 0.12-0.563 0.315-0.756l0-0h-0.002zM22.024 9.738l-0.599 2.945-1.175-1.182 1.774-1.764zM21.419 8.836l-1.92 1.909-1.485-1.493 3.405-0.415zM24.004 28.8c0.884 0 1.6 0.716 1.6 1.6v0 0.534h-23.466v-0.534c0-0.884 0.716-1.6 1.6-1.6h20.267zM16.538 26.666v1.067h-5.334v-1.067h5.334zM11.204 25.6v-4.053c0-1.294 1.197-2.346 2.666-2.346s2.667 1.053 2.667 2.346v4.053h-5.334zM17.604 23.904v-2.357c0-1.882-1.675-3.413-3.733-3.413-0.018-0-0.038-0-0.059-0-1.353 0-2.54 0.707-3.213 1.771l-0.009 0.016c-2.36-2.482-3.811-5.846-3.811-9.549 0-2.314 0.567-4.496 1.569-6.414l-0.036 0.077 18.602 18.709c-1.823 0.947-3.98 1.502-6.266 1.502-1.079 0-2.128-0.124-3.136-0.357l0.093 0.018zM28.893 23.221l-21.057-21.18 0.755-0.752 7.935 7.98c0.003 0 0.006 0.007 0.009 0.009l13.114 13.191-0.757 0.752z"></path>
<path fill="#4d5ae5" style="fill: var(--color1, #4d5ae5)" d="M13.876 20.267h-0.005c-0.001 0-0.002 0-0.002 0-0.884 0-1.6 0.716-1.6 1.6s0.715 1.599 1.597 1.6h0.005c0.001 0 0.002 0 0.002 0 0.884 0 1.6-0.716 1.6-1.6s-0.715-1.599-1.597-1.6h-0zM14.249 22.245c-0.096 0.096-0.229 0.155-0.376 0.155-0.295 0-0.534-0.239-0.534-0.534 0-0.001 0-0.001 0-0.002v0c0.002-0.292 0.238-0.529 0.53-0.53h0c0.293 0.002 0.531 0.24 0.531 0.534 0 0.148-0.060 0.281-0.157 0.378l-0 0h0.005z"></path>
</symbol>
</defs>
</svg>
